# 3ds Max Wavefront OBJ Exporter v0.99 - (c)2007 guruware
# File Created: 19.03.2025 23:16:00

mtllib carro.mtl

#
# object Car
#

v  -7.6420 3.4807 -12.9912
v  -7.6420 4.6998 -16.7446
v  -7.6420 3.4807 -16.7446
v  -7.4495 2.3098 -16.7446
v  -6.6989 2.3098 -16.7446
v  -7.4495 2.3098 -12.9912
v  0.0573 7.5164 -16.3423
v  -7.6420 7.5068 -16.2574
v  0.0573 8.1998 -16.3596
v  3.7855 8.0843 -16.3596
v  7.5160 7.6993 -11.8363
v  7.5136 7.6993 -16.3596
v  7.7566 7.5068 -16.2574
v  7.7566 5.1008 -16.7446
v  7.7566 3.4807 13.0663
v  7.7566 4.6998 16.3626
v  7.7566 3.0958 16.3626
v  7.5642 2.3098 16.3626
v  3.8107 2.3098 17.1325
v  7.5642 2.3098 13.0663
v  6.0628 2.3098 -12.9912
v  0.0573 2.3098 -12.9912
v  6.8135 2.3098 -16.7446
v  7.5642 2.3098 -16.7446
v  7.7566 3.4807 -16.7446
v  7.5642 2.3098 -12.9912
v  -5.1638 11.7415 -3.8482
v  -5.2757 11.5345 -4.1564
v  -7.4014 7.6993 -2.8858
v  -7.2895 7.8966 -2.5776
v  -7.2795 7.9144 -2.5498
v  -5.2757 11.5345 -3.4437
v  2.6679 12.1264 -3.8482
v  5.2784 11.7415 -3.8482
v  2.6679 11.9339 -9.7286
v  0.0573 12.0494 -9.9210
v  -2.5532 11.9339 -9.7286
v  0.0573 12.2419 -3.8482
v  -3.6721 8.0843 -12.4137
v  -7.3928 7.6993 -16.3596
v  -7.4014 7.6993 -11.8363
v  -7.0285 7.8083 -11.7691
v  -6.6742 7.9118 -11.7054
v  -3.4856 8.1740 -12.3466
v  0.0573 12.0494 1.8397
v  -2.5532 12.1264 -3.8482
v  -2.5532 11.9339 1.8397
v  -2.4227 11.8300 1.9549
v  -2.2987 11.7324 2.0567
v  0.0573 11.9455 1.9549
v  5.2784 11.5490 -9.1511
v  5.3903 11.3613 -8.9290
v  7.1431 7.8083 -11.7691
v  6.7888 7.9118 -11.7054
v  5.0174 11.4654 -9.2182
v  5.3903 11.5345 -3.4437
v  7.5160 7.6993 -2.8858
v  7.4042 7.8966 -3.2902
v  7.3692 7.9583 -3.4167
v  5.3903 11.5345 -4.1564
v  -5.1638 11.5490 1.4547
v  -4.9027 11.4643 1.5700
v  -4.6547 11.3850 1.6910
v  3.7867 8.0843 -12.4137
v  -3.6678 8.0843 -16.3596
v  0.0573 8.1998 -12.6062
v  -5.9482 2.3098 -12.9912
v  0.0573 2.3098 -16.7446
v  -7.6420 7.1219 15.5926
v  -7.6420 5.8707 11.4873
v  -7.6420 5.1008 16.3626
v  -7.4090 7.3143 15.9776
v  -7.6420 7.5068 -2.8858
v  -7.4014 7.6993 6.0647
v  -7.2895 7.8966 5.4779
v  -3.6961 2.3098 7.5083
v  -7.4495 2.3098 6.7504
v  -3.6961 2.3098 -2.8858
v  0.0573 2.3098 -2.8858
v  3.8107 2.3098 -2.8858
v  0.0573 2.3098 7.5083
v  3.8107 2.3098 7.5083
v  7.5642 2.3098 -2.8858
v  7.7566 3.4807 -2.8858
v  7.5642 2.3098 6.7504
v  7.7566 3.4807 -6.6151
v  7.7566 5.8707 -7.8687
v  7.5642 2.3098 -6.6151
v  -7.6420 3.4807 6.7504
v  -7.6420 5.8707 8.3294
v  -7.6420 3.4807 -2.8858
v  -7.4495 2.3098 -2.8858
v  5.2784 11.5490 1.4547
v  5.0174 11.4643 1.5700
v  7.5160 7.6993 6.0647
v  7.4042 7.8966 5.4779
v  7.3692 7.9583 5.2943
v  5.3903 11.3613 1.3289
v  -5.1638 11.5490 -9.1511
v  2.6679 11.9339 1.8397
v  -7.2895 7.8966 -3.2902
v  2.5373 11.8300 1.9549
v  0.0573 8.2837 -12.5391
v  4.7694 11.3850 1.6910
v  7.1431 7.8071 5.9495
v  2.5373 11.8312 -9.7957
v  2.4133 11.7335 -9.8595
v  0.0573 11.9409 -9.9882
v  7.7566 7.5068 -7.3851
v  7.7566 7.5068 -12.2212
v  7.7566 7.5068 -2.8858
v  7.7566 5.1008 -2.8858
v  7.7566 7.2181 10.9730
v  7.5249 7.3143 15.9776
v  7.7566 7.1219 15.5926
v  7.7566 5.1008 16.3626
v  7.7566 5.8707 11.4873
v  -7.6420 7.2903 7.5083
v  -7.6420 5.8707 -7.8687
v  -7.6420 5.1008 -2.8858
v  -7.6420 7.5068 -12.2212
v  -6.8721 5.1008 -16.7446
v  -7.6420 5.1008 -16.7446
v  -7.6420 5.8707 -11.7376
v  3.9070 5.1008 17.1325
v  0.0573 5.1008 17.2480
v  -3.4075 4.9805 18.1719
v  0.0573 4.9805 18.2874
v  0.0573 4.6196 18.4029
v  3.5221 4.9805 18.1719
v  7.3332 2.7469 -17.5145
v  7.3332 4.8554 -17.5145
v  -7.2186 2.7469 -17.5145
v  -7.2186 4.8554 -17.5145
v  0.0573 2.7469 -17.5145
v  7.4549 5.2342 16.1904
v  3.5221 4.6196 18.2874
v  6.9870 4.9805 17.4020
v  0.0573 2.3098 17.1325
v  3.8107 2.3098 12.1279
v  3.5221 2.8150 18.1719
v  3.5221 3.1759 18.2874
v  0.0573 2.8150 18.2874
v  0.0573 4.8554 -17.5145
v  -7.4495 2.3098 16.3626
v  -3.6961 2.3098 12.1279
v  -3.6961 2.3098 17.1325
v  -3.4075 2.8150 18.1719
v  -3.4075 3.1759 18.2874
v  -6.8723 2.8150 17.4020
v  -4.0680 5.2342 16.8448
v  -7.3402 5.2342 16.1904
v  -7.1421 7.1157 15.8631
v  6.9870 3.1760 17.5175
v  6.9870 4.6196 17.5175
v  6.9870 2.8150 17.4020
v  0.0573 3.1759 18.4029
v  -3.4075 4.6196 18.2874
v  -6.8723 3.1760 17.5175
v  -3.7924 5.1008 17.1325
v  -6.8723 4.9805 17.4020
v  -6.8723 4.6196 17.5175
v  0.0573 2.3098 12.1279
v  -7.6420 3.0958 16.3626
v  -7.4495 2.3098 13.0663
v  -7.6420 4.6998 16.3626
v  7.2579 7.1157 15.8631
v  0.0573 5.1008 -16.7446
v  6.9867 5.1008 -16.7446
v  7.7566 4.6998 -16.7446
v  7.7566 3.4807 -12.9912
v  7.7566 3.4807 6.7504
v  7.7566 4.6998 -2.8858
v  7.7566 5.8707 8.3294
v  4.0842 7.1735 16.1904
v  3.7911 7.6993 16.3626
v  4.1827 5.2342 16.8448
v  -3.9690 7.1735 16.1904
v  -3.6759 7.6993 16.3626
v  -3.3084 8.2581 6.2172
v  0.0573 11.8421 2.0567
v  0.0573 8.2883 6.3344
v  0.0573 8.1998 6.4497
v  3.6002 8.1728 6.3344
v  3.4231 8.2581 6.2172
v  2.4133 11.7324 2.0567
v  0.0573 8.3678 6.2172
v  3.7867 8.0843 6.4497
v  6.7888 7.9107 5.8515
v  -7.0285 7.8071 5.9495
v  -3.4856 8.1728 6.3344
v  -6.6742 7.9107 5.8515
v  -5.2757 11.3613 1.3289
v  -3.6721 8.0843 6.4497
v  7.7566 5.8707 -11.7376
v  7.4042 7.8966 -11.3457
v  7.7566 7.2903 7.5083
v  7.4042 7.8966 -2.5776
v  -5.2858 11.3444 1.3176
v  -5.2858 11.5159 -3.4073
v  -7.2795 7.9144 5.4251
v  -5.2757 11.3613 -8.9290
v  -7.2895 7.8966 -11.3457
v  -7.2795 7.9144 -11.3015
v  -4.9027 11.4654 -9.2182
v  -7.2895 7.8966 -9.3318
v  -7.2895 7.8966 -7.8214
v  -7.2795 7.9144 -3.3266
v  -5.2858 11.5159 -4.1841
v  -5.2757 11.4046 -7.7359
v  -5.2757 11.4371 -6.8410
v  -5.2858 11.3444 -8.9090
v  -5.2858 11.4195 -6.8419
v  5.4253 11.4698 -3.3172
v  7.3692 7.9583 -2.4812
v  5.4253 11.3026 1.2895
v  5.4253 11.3026 -8.8596
v  5.4253 11.4698 -4.2528
v  7.3692 7.9583 -11.1922
v  -7.6420 3.4807 -6.6151
v  -7.6420 4.6998 -2.8858
v  -7.6420 7.2181 10.9730
v  8.1416 5.6782 11.4873
v  -7.6420 3.4807 13.0663
v  -7.4495 2.3098 -6.6151
v  -5.3852 2.3098 -6.6151
v  0.0573 2.3098 -6.6151
v  5.4998 2.3098 -6.6151
v  -7.6420 7.5068 -7.3851
v  8.1416 3.2882 -12.9912
v  -2.4227 11.8312 -9.7957
v  0.0573 11.8377 -10.0519
v  0.0573 8.3634 -12.4753
v  -2.2987 11.7335 -9.8595
v  3.4231 8.2592 -12.2828
v  4.7694 11.3861 -9.2820
v  -3.3084 8.2592 -12.2828
v  -4.6547 11.3861 -9.2820
v  3.6002 8.1740 -12.3466
v  0.0573 7.6993 16.4781
v  8.1416 3.2882 13.0663
v  -8.0270 5.6782 -7.8687
v  -8.0270 3.2882 6.7504
v  -8.0270 3.4675 7.2241
v  -8.0270 5.6782 8.3294
v  -8.0270 5.4990 -8.1589
v  -8.0270 3.2882 -6.6151
v  -8.0270 5.6782 11.4873
v  -8.0270 3.2882 -12.9912
v  -8.0270 5.6782 -11.7376
v  -8.0270 5.4990 -11.4474
v  8.1416 3.2882 -6.6151
v  8.1416 3.4078 -7.0933
v  8.1416 5.6782 -7.8687
v  8.1416 3.4675 12.5926
v  8.1416 5.6782 -11.7376
v  8.1416 5.5587 -11.4474
v  -8.0270 5.4990 11.2505
v  -8.0270 3.2882 13.0663
v  8.1416 5.6782 8.3294
v  8.1416 5.4990 8.5662
v  8.1416 3.2882 6.7504
v  -8.0270 5.4990 8.5662
v  -8.0270 3.4675 12.5926
v  8.1416 3.4675 7.2241
v  8.1416 5.4990 11.2505
v  8.1416 3.4078 -12.5130
v  8.1416 5.5587 -8.1589
v  -8.0270 3.4675 -12.5130
v  -8.0270 3.4675 -7.0933
# 270 vertices

vn -0.9865 -0.1074 0.1235
vn -0.9686 0.0000 -0.2488
vn -0.8626 -0.0385 0.5044
vn -0.5907 -0.7931 -0.1486
vn 0.0000 -0.9669 -0.2553
vn -0.4755 -0.8656 -0.1570
vn -0.0095 0.1017 -0.9948
vn -0.7129 0.4624 -0.5272
vn -0.0140 0.6904 -0.7233
vn 0.0554 0.6935 -0.7184
vn 0.5021 0.8543 -0.1345
vn 1.0000 0.0000 -0.0000
vn 0.7521 0.3777 -0.5402
vn 0.6869 0.0700 -0.7233
vn 0.4221 -0.6205 0.6609
vn 0.9571 0.0000 0.2897
vn 0.9084 -0.1601 -0.3862
vn 0.5637 -0.8090 0.1667
vn -0.4179 -0.8895 0.1847
vn 0.4641 -0.7812 0.4175
vn 0.0000 -1.0000 -0.0000
vn -0.0000 -0.9669 -0.2553
vn 0.6723 -0.7302 -0.1216
vn 0.9594 0.0077 -0.2818
vn 0.3343 -0.9324 -0.1372
vn -0.5073 0.8616 -0.0161
vn -0.8937 -0.0063 -0.4487
vn -0.7645 0.6446 0.0043
vn -0.8721 0.4894 0.0033
vn -0.3958 -0.6606 0.6379
vn -0.8692 0.4942 0.0124
vn 0.0942 0.9955 0.0049
vn 0.5608 0.8274 -0.0291
vn 0.1289 0.4075 -0.9040
vn -0.0051 0.8650 -0.5018
vn -0.1912 0.7999 -0.5689
vn -0.0002 1.0000 0.0010
vn -0.1061 0.9361 -0.3353
vn 0.6883 -0.2883 0.6657
vn -0.5441 0.8327 -0.1027
vn -0.0960 0.7393 -0.6665
vn -0.1225 0.7325 -0.6697
vn -0.1215 0.7442 -0.6568
vn -0.0024 0.9343 0.3566
vn -0.1449 0.9894 -0.0058
vn 0.1235 0.9183 0.3761
vn -0.1212 0.6514 0.7490
vn -0.0397 0.7326 0.6795
vn -0.0010 0.7233 0.6906
vn 0.4774 0.7934 -0.3776
vn 0.8653 0.5011 -0.0124
vn 0.0993 0.7458 -0.6588
vn 0.4198 0.7971 0.4340
vn 0.1954 0.3988 -0.8960
vn 0.8692 0.4942 0.0124
vn 0.7635 0.6458 0.0079
vn 0.8727 0.4882 -0.0033
vn 0.8722 0.4891 -0.0045
vn 0.8718 0.4897 -0.0123
vn -0.3425 0.9124 0.2242
vn -0.1224 0.6623 0.7392
vn -0.1731 0.7088 0.6838
vn 0.0687 0.9861 0.1514
vn -0.0648 0.6508 -0.7565
vn 0.0097 0.8944 -0.4471
vn -0.7767 -0.3568 0.5191
vn -0.8677 0.4939 0.0566
vn -0.8305 -0.3538 0.4303
vn -0.4199 0.1550 0.8942
vn -0.6247 0.7808 0.0082
vn 0.9453 -0.1323 0.2983
vn -0.8654 0.5010 0.0034
vn -0.4778 -0.8465 -0.2351
vn 0.6500 -0.7598 0.0143
vn 0.9958 -0.0896 -0.0196
vn 0.4248 -0.8958 -0.1307
vn 0.9908 -0.0875 -0.1031
vn 0.9223 0.3429 0.1782
vn 0.4322 -0.7892 0.4363
vn -0.9912 -0.0973 0.0898
vn -0.9163 0.3625 -0.1702
vn -0.9969 -0.0789 -0.0056
vn -0.6694 -0.7295 -0.1403
vn 0.5040 0.8381 0.2086
vn 0.1255 0.6578 0.7427
vn 0.9724 -0.1448 0.1830
vn 0.8654 0.5010 0.0034
vn 0.8656 0.5008 0.0040
vn 0.8626 0.5058 0.0126
vn -0.4741 0.7837 -0.4014
vn 0.1441 0.8929 0.4265
vn -0.3996 0.7639 0.5068
vn -0.7052 -0.2730 -0.6543
vn 0.1219 0.6508 0.7494
vn -0.0011 0.6252 -0.7805
vn 0.7331 -0.4262 0.5300
vn 0.0855 0.8453 0.5273
vn 0.2046 0.8682 -0.4521
vn 0.0943 0.5204 -0.8487
vn 0.0034 0.5259 -0.8505
vn -1.0000 0.0000 -0.0000
vn 0.2311 0.3213 -0.9183
vn 0.8931 0.4485 0.0335
vn 0.9095 0.4157 0.0052
vn 0.4531 -0.4942 0.7420
vn 0.8040 0.3307 0.4942
vn 0.8819 0.3953 0.2568
vn -0.8619 0.5057 0.0380
vn -0.0373 0.6481 -0.7606
vn -0.6075 0.4090 -0.6809
vn -0.9982 0.0574 -0.0188
vn 0.0817 0.9017 0.4245
vn 0.0036 0.9898 0.1425
vn -0.0949 0.2419 0.9657
vn 0.0774 0.7495 0.6575
vn -0.0302 0.1670 0.9855
vn 0.1030 0.7582 0.6438
vn 0.4517 -0.4241 -0.7849
vn 0.4218 0.5284 -0.7368
vn -0.4176 -0.4072 -0.8123
vn -0.3892 0.5738 -0.7206
vn -0.0447 -0.5180 -0.8542
vn -0.3989 -0.0175 0.9168
vn 0.0919 0.1667 0.9817
vn 0.3518 0.7334 0.5817
vn -0.6432 -0.7504 0.1524
vn 0.0206 -0.6168 0.7868
vn 0.1490 -0.1629 0.9753
vn -0.0427 -0.6498 0.7589
vn 0.0548 0.6055 -0.7940
vn -0.8924 -0.3836 0.2376
vn -0.8127 -0.5461 0.2031
vn -0.1193 -0.6340 0.7641
vn -0.0919 -0.1667 0.9817
vn -0.4253 -0.5694 0.7035
vn -0.6473 0.0177 0.7620
vn 0.4556 0.3853 0.8025
vn 0.5766 -0.1062 0.8101
vn 0.5097 0.1512 0.8469
vn 0.0302 -0.1670 0.9855
vn -0.1183 0.5044 0.8554
vn -0.5405 -0.0262 0.8409
vn -0.1683 0.9245 0.3421
vn -0.3217 0.6669 0.6722
vn -0.4350 -0.5686 0.6982
vn -0.8847 -0.3824 0.2666
vn -0.4565 -0.8871 0.0685
vn -0.7980 0.5188 0.3067
vn -0.0908 -0.1266 0.9878
vn 0.0562 0.6719 -0.7385
vn 0.1340 0.7104 -0.6909
vn 0.7877 -0.5284 -0.3166
vn 0.7456 0.5352 -0.3971
vn 0.8173 0.1478 -0.5570
vn 0.9966 0.0007 -0.0818
vn 0.7858 0.5540 0.2750
vn 0.4082 -0.0586 0.9110
vn -0.1792 0.2500 0.9515
vn -0.8343 0.3699 -0.4088
vn 0.0682 0.7234 0.6871
vn 0.0006 0.8106 0.5856
vn 0.0006 0.7932 0.6089
vn 0.0822 0.8549 0.5122
vn 0.0366 0.8102 0.5849
vn 0.9202 -0.2245 0.3206
vn -0.0911 0.8054 0.5857
vn 0.1163 0.8700 0.4791
vn 0.1121 0.8344 0.5397
vn -0.0876 0.8477 0.5231
vn -0.0820 0.8549 0.5123
vn -0.4823 0.5695 -0.6656
vn -0.8626 0.5058 0.0126
vn -0.1146 0.8687 0.4819
vn 0.9990 0.0319 -0.0308
vn 0.8662 0.4997 -0.0034
vn 0.0467 0.9905 0.1290
vn 0.8721 0.4894 0.0033
vn -0.8645 0.5025 0.0103
vn -0.8654 0.5011 0.0030
vn -0.8956 -0.1629 0.4140
vn -0.7713 0.6161 0.1600
vn -0.6980 -0.4333 -0.5701
vn -0.8660 0.5000 -0.0028
vn -0.4054 0.8305 -0.3820
vn -0.1392 0.3186 -0.9376
vn -0.8699 0.4933 -0.0000
vn -0.6949 -0.3815 0.6096
vn -0.5315 0.0170 -0.8469
vn -0.8638 -0.5039 0.0020
vn -0.8690 0.4947 -0.0000
vn -0.8729 0.4878 -0.0142
vn -0.8656 -0.5003 0.0205
vn -0.8597 -0.5082 0.0507
vn -0.3859 -0.6323 -0.6718
vn -0.4997 0.8655 -0.0358
vn -0.8724 0.4885 -0.0179
vn 0.8861 0.4634 -0.0089
vn 0.3856 0.9227 -0.0000
vn 0.8595 0.5110 0.0153
vn 0.8666 0.4990 -0.0105
vn -0.5829 0.6412 -0.4990
vn -0.8425 -0.5386 -0.0027
vn -0.7960 0.0568 0.6026
vn 0.7431 0.5322 0.4057
vn -0.8168 0.0775 0.5716
vn -0.5018 0.8644 -0.0314
vn -0.3967 -0.8955 0.2015
vn 0.8746 -0.1419 -0.4636
vn -0.1710 0.3772 -0.9102
vn -0.0386 0.5426 -0.8391
vn 0.0342 0.6070 -0.7939
vn -0.8942 -0.3612 -0.2646
vn 0.7623 0.5305 0.3708
vn -0.0812 0.6517 -0.7541
vn -0.6852 -0.5485 -0.4792
vn 0.1273 0.1128 -0.9854
vn -0.0186 0.2182 0.9757
vn -0.0291 0.2847 0.9582
vn 0.0167 0.3438 0.9389
vn 0.0293 0.2847 0.9582
vn 0.0296 0.2852 0.9580
vn -0.0287 0.2852 0.9581
vn 0.4491 -0.6710 0.5901
vn -0.7689 0.5014 0.3966
vn -0.5442 -0.0014 -0.8389
vn -0.9894 -0.1360 0.0515
vn -0.7431 0.5322 -0.4057
vn -0.8725 -0.1373 0.4688
vn -0.7792 0.5079 0.3673
vn -0.7158 -0.2393 -0.6561
vn -0.0572 0.7858 -0.6159
vn 0.5700 -0.0135 0.8215
vn 0.9867 -0.1577 -0.0394
vn 0.7251 0.5075 0.4654
vn 0.9894 -0.1360 -0.0515
vn 0.1060 0.7738 -0.6245
vn -0.8603 -0.1077 0.4983
vn 0.1017 0.8358 -0.5396
vn 0.8603 -0.1077 -0.4983
vn 0.3878 0.5081 0.7691
vn -0.3878 0.5081 -0.7691
vn -0.1015 0.4416 -0.8915
vn -0.1697 0.3262 -0.9300
vn 0.1941 0.4557 0.8687
# 244 vertex normals

o Car
g Car
usemtl Body
s off
f 1//1 2//2 3//3 4//4 
usemtl Bumpers
f 1//1 4//4 5//5 6//6 
usemtl Body
f 7//7 8//8 9//9 10//10 
f 10//10 11//11 12//12 13//13 
f 10//10 13//13 14//14 7//7 
usemtl Bumpers
f 15//15 16//16 17//17 18//18 
usemtl Bottom
f 15//15 18//18 19//19 20//20 
f 21//21 22//21 23//22 24//23 
f 21//21 24//23 25//24 26//25 
usemtl Body
f 27//26 28//27 29//28 30//29 
f 27//26 30//29 31//30 32//31 
f 33//32 34//33 35//34 36//35 
f 33//32 36//35 37//36 38//37 
f 39//38 40//39 41//40 42//41 
usemtl Black
f 39//38 42//41 43//42 44//43 
usemtl Body
f 45//44 46//45 47//46 48//47 
f 45//44 48//47 49//48 50//49 
f 51//50 52//51 11//11 53//52 
f 51//50 53//52 54//53 55//54 
f 34//33 56//55 57//56 58//57 
f 34//33 58//57 59//58 60//59 
f 47//46 27//26 61//60 62//61 
f 47//46 62//61 63//62 48//47 
f 64//63 11//11 10//10 9//9 
f 64//63 9//9 65//64 66//65 
usemtl Bottom
f 67//21 6//6 5//5 68//5 
f 67//21 68//5 23//22 22//21 
usemtl Body
f 69//66 70//67 71//68 72//69 
f 73//70 69//66 72//69 29//28 
f 72//69 74//71 75//72 29//28 
f 65//64 40//39 39//38 66//65 
usemtl Bottom
f 76//21 77//73 78//21 79//21 
f 76//21 79//21 80//21 81//21 
f 82//21 81//21 80//21 83//74 
f 82//21 83//74 84//75 85//76 
usemtl Body
f 86//77 87//78 84//75 83//74 
usemtl Bottom
f 86//77 83//74 80//21 88//79 
usemtl Body
f 89//80 90//81 91//82 92//83 
usemtl Bottom
f 89//80 92//83 78//21 77//73 
usemtl Body
f 93//84 94//85 95//86 96//87 
f 93//84 96//87 97//88 98//89 
f 47//46 46//45 99//90 27//26 
f 100//91 93//84 33//32 38//37 
f 100//91 38//37 46//45 45//44 
f 29//28 28//27 28//92 101//93 
f 93//84 98//89 34//33 33//32 
f 100//91 45//44 50//49 102//94 
f 66//65 39//38 44//43 103//95 
f 95//86 94//85 104//96 105//97 
f 36//35 35//34 55//54 106//98 
f 36//35 106//98 107//99 108//100 
f 109//101 110//102 111//103 112//12 
f 109//101 112//12 84//75 87//78 
f 113//104 114//105 115//12 116//106 
f 113//104 116//106 16//16 117//107 
f 118//101 73//101 119//108 120//101 
f 118//101 120//101 91//82 90//81 
f 121//101 8//8 122//109 123//110 
f 121//101 123//110 1//1 124//111 
usemtl Bumpers
f 125//112 126//113 127//114 128//115 
f 125//112 128//115 129//116 130//117 
f 131//118 132//119 25//24 24//23 
f 133//120 134//121 135//122 68//5 
f 133//120 68//5 5//5 4//4 
f 116//106 136//123 125//112 130//117 
f 116//106 130//117 137//124 138//125 
usemtl Bottom
f 139//126 140//21 19//19 141//127 
usemtl Bumpers
f 139//126 141//127 142//128 143//129 
f 135//122 144//130 131//118 23//22 
f 135//122 23//22 68//5 
usemtl Bottom
f 145//131 146//21 147//132 148//133 
usemtl Bumpers
f 145//131 148//133 149//134 150//135 
usemtl Body
f 72//69 71//68 151//136 152//12 
usemtl Lights
f 72//69 152//12 151//136 153//137 
usemtl Bumpers
f 154//138 155//139 142//128 141//127 
f 154//138 141//127 19//19 156//12 
f 142//128 137//124 157//140 143//129 
f 149//134 158//141 159//142 150//135 
f 157//140 129//116 149//134 148//133 
f 157//140 148//133 147//132 143//129 
f 19//19 18//18 154//138 156//12 
f 16//16 116//106 138//125 155//139 
f 160//143 151//136 71//68 161//144 
f 160//143 161//144 162//145 127//114 
usemtl Bottom
f 147//132 163//21 139//126 143//129 
usemtl Bumpers
f 164//146 165//147 145//131 150//135 
f 164//146 150//135 159//142 166//148 
f 126//113 160//143 127//114 
usemtl Body
f 114//105 167//149 116//106 115//12 
usemtl Bumpers
f 71//68 70//67 166//148 162//145 
f 71//68 162//145 161//144 
f 166//148 159//142 158//141 162//145 
f 18//18 17//17 155//139 154//138 
f 17//17 16//16 155//139 
f 128//115 127//114 162//145 158//141 
f 128//115 158//141 149//134 129//116 
f 130//117 129//116 157//140 137//124 
f 138//125 137//124 142//128 155//139 
f 123//110 122//109 134//121 2//2 
f 2//2 134//121 133//120 3//3 
usemtl Body
f 168//150 7//7 169//151 132//119 
usemtl Bumpers
f 168//150 132//119 131//118 144//130 
usemtl Body
f 122//109 8//8 168//150 144//130 
usemtl Bumpers
f 122//109 144//130 135//122 134//121 
f 169//151 14//14 170//152 132//119 
usemtl Body
f 132//119 170//152 171//153 25//24 
f 112//12 172//154 173//12 84//75 
f 112//12 111//103 174//155 172//154 
f 172//154 85//76 84//75 173//12 
usemtl Lights
f 175//156 176//157 177//12 136//123 
f 175//156 136//123 116//106 167//149 
f 153//137 151//136 160//143 178//12 
usemtl Body
f 160//143 179//158 153//137 178//12 
f 114//105 176//157 175//156 167//149 
f 125//112 136//123 177//12 176//157 
f 179//158 72//69 153//137 
usemtl Window
f 50//49 49//48 180//159 181//160 
usemtl Body
f 182//161 183//162 184//163 185//164 
usemtl Window
f 182//161 185//164 186//165 187//166 
usemtl Body
f 184//163 188//167 105//97 189//168 
usemtl Window
f 184//163 189//168 104//96 185//164 
usemtl Body
f 190//169 74//71 191//170 180//159 
usemtl Window
f 190//169 180//159 49//48 192//171 
usemtl Body
f 61//60 193//172 74//71 190//169 
f 61//60 190//169 192//171 62//61 
f 183//162 188//167 184//163 
f 194//173 183//162 182//161 191//170 
f 188//167 95//86 105//97 
f 74//71 194//173 191//170 
f 93//84 100//91 102//94 94//85 
f 110//102 195//174 13//13 11//11 
f 11//11 196//175 57//56 111//103 
f 110//102 11//11 111//103 
f 11//11 13//13 12//12 
f 197//176 174//155 111//103 57//56 
f 57//56 198//177 95//86 114//105 
f 113//104 117//107 197//176 57//56 
f 57//56 114//105 113//104 
f 8//8 73//70 29//28 41//40 
f 41//40 40//39 65//64 8//8 
usemtl Window
f 32//31 31//30 199//178 200//12 
usemtl Body
f 61//60 27//26 32//31 193//172 
f 74//71 193//172 199//178 75//72 
f 29//28 75//72 201//179 30//29 
f 202//180 99//90 203//181 203//182 
usemtl Window
f 202//180 203//182 204//183 202//184 
usemtl Body
f 99//90 205//185 41//40 203//181 
f 203//181 41//40 29//28 206//186 
f 29//28 101//93 101//187 207//188 
f 29//28 207//188 207//189 206//186 
usemtl Black
f 207//188 101//187 208//190 207//189 
usemtl Window
f 101//93 28//92 209//191 101//187 
usemtl Body
f 210//192 211//193 202//180 202//184 
usemtl Window
f 210//192 202//184 212//194 210//195 
f 101//187 209//191 213//196 208//190 
f 202//184 204//183 208//190 212//194 
f 31//30 30//29 201//179 199//178 
f 193//172 32//31 200//12 199//178 
f 75//72 199//178 201//179 
usemtl Body
f 198//177 57//56 56//55 214//197 
usemtl Window
f 198//177 214//197 97//88 215//198 
usemtl Body
f 34//33 98//89 216//199 56//55 
f 95//86 198//177 215//198 96//87 
f 11//11 52//51 217//200 196//175 
f 51//50 35//34 34//33 60//59 
f 51//50 60//59 218//201 52//51 
usemtl Window
f 196//175 217//200 59//58 219//202 
f 60//59 59//58 217//200 218//201 
f 97//88 214//197 56//55 216//199 
f 98//89 97//88 216//199 
usemtl Black
f 96//87 215//198 97//88 
usemtl Bumpers
f 24//23 23//22 131//118 
usemtl Body
f 120//101 220//203 221//12 91//82 
usemtl Bottom
f 145//131 165//147 76//21 146//21 
f 139//126 163//21 82//21 140//21 
usemtl Body
f 69//66 222//101 90//81 70//67 
f 197//176 117//107 223//204 174//155 
usemtl Bumpers
f 164//146 166//148 224//205 165//147 
usemtl Bottom
f 19//19 140//21 85//76 20//20 
f 147//132 146//21 81//21 163//21 
f 165//147 77//73 76//21 
f 163//21 81//21 82//21 
usemtl Body
f 222//101 118//101 90//81 
usemtl Bottom
f 140//21 82//21 85//76 
f 146//21 76//21 81//21 
usemtl Window
f 211//193 210//192 210//195 211//206 
usemtl Black
f 203//181 206//186 207//189 206//186 
f 203//181 206//186 204//183 203//182 
usemtl Bottom
f 225//207 6//6 67//21 226//21 
f 227//21 226//21 22//21 21//21 
f 227//21 21//21 26//25 228//21 
usemtl Body
f 229//101 121//101 124//111 119//108 
f 13//13 195//174 171//153 14//14 
usemtl Bumpers
f 25//24 171//153 230//208 26//25 
usemtl Bottom
f 226//21 67//21 22//21 
f 228//21 26//25 88//79 80//21 
usemtl Body
f 91//82 221//12 220//203 225//207 
usemtl Bottom
f 91//82 225//207 226//21 92//83 
usemtl Body
f 46//45 38//37 37//36 99//90 
usemtl Bottom
f 78//21 92//83 226//21 227//21 
f 78//21 227//21 228//21 79//21 
usemtl Body
f 27//26 99//90 202//180 211//193 
f 211//193 211//206 28//27 27//26 
f 73//101 229//101 119//108 
usemtl Bottom
f 79//21 228//21 80//21 
usemtl Window
f 52//51 218//201 217//200 
f 28//27 211//206 213//196 28//92 
f 28//92 213//196 209//191 
usemtl Body
f 57//56 196//175 219//202 58//57 
usemtl Black
f 204//183 206//186 207//189 208//190 
usemtl Window
f 208//190 213//196 210//195 212//194 
f 213//196 211//206 210//195 
usemtl Black
f 58//57 219//202 59//58 
usemtl Body
f 110//102 109//101 87//78 195//174 
usemtl Bumpers
f 133//120 4//4 3//3 
usemtl Body
f 231//209 37//36 108//100 232//210 
usemtl Window
f 231//209 232//210 233//211 234//212 
f 108//100 107//99 235//213 232//210 
usemtl Black
f 106//98 55//54 54//53 236//12 
usemtl Window
f 106//98 236//12 54//53 107//99 
usemtl Body
f 205//185 99//90 231//209 234//212 
usemtl Window
f 205//185 234//212 237//214 238//215 
usemtl Body
f 11//11 64//63 103//95 239//216 
f 11//11 239//216 235//213 53//52 
f 35//34 51//50 55//54 
f 99//90 37//36 231//209 
f 41//40 205//185 238//215 42//41 
f 37//36 36//35 108//100 
f 64//63 66//65 103//95 
usemtl Window
f 235//213 239//216 233//211 232//210 
f 237//214 44//43 43//42 238//215 
f 54//53 53//52 235//213 107//99 
f 233//211 103//95 237//214 234//212 
usemtl Black
f 42//41 238//215 43//42 
f 239//216 103//95 233//211 
f 103//95 44//43 237//214 
usemtl Body
f 240//217 179//218 126//219 125//220 
f 240//217 125//220 176//221 
f 179//218 160//222 126//219 
f 8//8 65//64 9//9 
f 8//8 7//7 168//150 
f 14//14 169//151 7//7 
usemtl Bumpers
f 16//16 15//15 241//223 117//107 
usemtl Body
f 120//101 119//108 242//224 220//203 
f 171//153 170//152 14//14 
f 123//110 2//2 1//1 
usemtl Bumpers
f 90//81 89//80 77//73 243//225 
f 90//81 243//225 244//226 245//227 
f 220//203 242//224 246//101 247//228 
f 70//67 90//81 245//227 248//229 
f 119//108 124//111 249//230 250//231 
f 119//108 250//231 251//101 242//224 
f 87//78 86//77 88//79 252//232 
f 87//78 252//232 253//233 254//234 
f 117//107 241//223 255//235 223//204 
f 171//153 195//174 254//234 256//236 
f 171//153 256//236 257//12 230//208 
f 195//174 87//78 254//234 
f 224//205 166//148 70//67 248//229 
f 224//205 248//229 258//101 259//237 
f 172//154 174//155 223//204 260//238 
f 172//154 260//238 261//12 262//239 
f 124//111 1//1 6//6 249//230 
f 245//227 244//226 263//12 248//229 
f 259//237 258//101 264//240 165//147 
f 248//229 263//12 258//101 
f 243//225 77//73 244//226 
f 224//205 259//237 165//147 
f 262//239 261//12 265//241 85//76 
f 260//238 223//204 255//235 266//101 
f 260//238 266//101 261//12 
f 20//20 255//235 241//223 15//15 
f 172//154 262//239 85//76 
f 230//208 257//12 267//242 26//25 
f 254//234 253//233 268//101 256//236 
f 256//236 268//101 257//12 
f 252//232 88//79 253//233 
f 250//231 249//230 6//6 269//243 
f 250//231 269//243 251//101 
f 242//224 251//101 246//101 
f 247//228 246//101 270//244 225//207 
f 220//203 247//228 225//207 
usemtl Window
f 185//164 104//96 94//85 186//165 
f 180//159 191//170 187//166 181//160 
f 187//166 186//165 102//94 181//160 
f 192//171 49//48 48//47 63//62 
usemtl Black
f 94//85 102//94 186//165 
f 102//94 50//49 181//160 
f 62//61 192//171 63//62 
f 105//97 104//96 189//168 
f 191//170 182//161 187//166 
# 233 polygons - 58 triangles

