# 3ds Max Wavefront OBJ Exporter v0.99 - (c)2007 guruware
# File Created: 26.03.2025 21:35:01

mtllib CarroT.mtl

#
# object Car
#

v  -7.6420 3.4807 -16.7446
v  -7.4495 2.3098 -16.7446
v  -7.6420 3.4807 -12.9912
v  -7.6420 4.6998 -16.7446
v  -6.6989 2.3098 -16.7446
v  -7.4495 2.3098 -12.9912
v  0.0573 7.5164 -16.3423
v  -7.6420 7.5068 -16.2574
v  0.0573 8.1998 -16.3596
v  3.7855 8.0843 -16.3596
v  7.7566 7.5068 -16.2574
v  7.5160 7.6993 -11.8363
v  7.5136 7.6993 -16.3596
v  7.7566 5.1008 -16.7446
v  7.7566 4.6998 16.3626
v  7.7566 3.0958 16.3626
v  7.5642 2.3098 16.3626
v  7.7566 3.4807 13.0663
v  3.8107 2.3098 17.1325
v  7.5642 2.3098 13.0663
v  6.0628 2.3098 -12.9912
v  0.0573 2.3098 -12.9912
v  6.8135 2.3098 -16.7446
v  7.5642 2.3098 -16.7446
v  7.7566 3.4807 -16.7446
v  7.5642 2.3098 -12.9912
v  -5.2757 11.5345 -4.1564
v  -7.4014 7.6993 -2.8858
v  -7.2895 7.8966 -2.5776
v  -5.1638 11.7415 -3.8482
v  -7.2795 7.9144 -2.5498
v  -5.2757 11.5345 -3.4437
v  2.6679 12.1264 -3.8482
v  5.2784 11.7415 -3.8482
v  2.6679 11.9339 -9.7286
v  0.0573 12.0494 -9.9210
v  -2.5532 11.9339 -9.7286
v  0.0573 12.2419 -3.8482
v  -3.6721 8.0843 -12.4137
v  -7.3928 7.6993 -16.3596
v  -7.4014 7.6993 -11.8363
v  -7.0285 7.8083 -11.7691
v  -6.6742 7.9118 -11.7054
v  -3.4856 8.1740 -12.3466
v  0.0573 12.0494 1.8397
v  -2.5532 12.1264 -3.8482
v  -2.5532 11.9339 1.8397
v  -2.4227 11.8300 1.9549
v  -2.2987 11.7324 2.0567
v  0.0573 11.9455 1.9549
v  5.3903 11.3613 -8.9290
v  7.1431 7.8083 -11.7691
v  5.2784 11.5490 -9.1511
v  6.7888 7.9118 -11.7054
v  5.0174 11.4654 -9.2182
v  5.3903 11.5345 -3.4437
v  7.5160 7.6993 -2.8858
v  7.4042 7.8966 -3.2902
v  7.3692 7.9583 -3.4167
v  5.3903 11.5345 -4.1564
v  -5.1638 11.5490 1.4547
v  -4.9027 11.4643 1.5700
v  -4.6547 11.3850 1.6910
v  3.7867 8.0843 -12.4137
v  -3.6678 8.0843 -16.3596
v  0.0573 8.1998 -12.6062
v  -5.9482 2.3098 -12.9912
v  0.0573 2.3098 -16.7446
v  -7.6420 5.1008 16.3626
v  -7.4090 7.3143 15.9776
v  -7.6420 7.1219 15.5926
v  -7.6420 5.8707 11.4873
v  -7.6420 7.5068 -2.8858
v  -7.4014 7.6993 6.0647
v  -7.2895 7.8966 5.4779
v  -3.6961 2.3098 7.5083
v  -7.4495 2.3098 6.7504
v  -3.6961 2.3098 -2.8858
v  0.0573 2.3098 -2.8858
v  3.8107 2.3098 -2.8858
v  0.0573 2.3098 7.5083
v  3.8107 2.3098 7.5083
v  7.5642 2.3098 -2.8858
v  7.7566 3.4807 -2.8858
v  7.5642 2.3098 6.7504
v  7.7566 3.4807 -6.6151
v  7.7566 5.8707 -7.8687
v  7.5642 2.3098 -6.6151
v  -7.6420 3.4807 6.7504
v  -7.6420 5.8707 8.3294
v  -7.6420 3.4807 -2.8858
v  -7.4495 2.3098 -2.8858
v  5.0174 11.4643 1.5700
v  7.5160 7.6993 6.0647
v  7.4042 7.8966 5.4779
v  5.2784 11.5490 1.4547
v  7.3692 7.9583 5.2943
v  5.3903 11.3613 1.3289
v  -5.1638 11.5490 -9.1511
v  2.6679 11.9339 1.8397
v  -7.2895 7.8966 -3.2902
v  2.5373 11.8300 1.9549
v  0.0573 8.2837 -12.5391
v  4.7694 11.3850 1.6910
v  7.1431 7.8071 5.9495
v  2.5373 11.8312 -9.7957
v  2.4133 11.7335 -9.8595
v  0.0573 11.9409 -9.9882
v  7.7566 7.5068 -2.8858
v  7.7566 5.1008 -2.8858
v  7.7566 7.5068 -7.3851
v  7.7566 7.5068 -12.2212
v  7.7566 7.1219 15.5926
v  7.7566 5.1008 16.3626
v  7.7566 7.2181 10.9730
v  7.5249 7.3143 15.9776
v  7.7566 5.8707 11.4873
v  -7.6420 5.8707 -7.8687
v  -7.6420 5.1008 -2.8858
v  -7.6420 7.2903 7.5083
v  -6.8721 5.1008 -16.7446
v  -7.6420 5.1008 -16.7446
v  -7.6420 7.5068 -12.2212
v  -7.6420 5.8707 -11.7376
v  0.0573 5.1008 17.2480
v  -3.4075 4.9805 18.1719
v  0.0573 4.9805 18.2874
v  3.9070 5.1008 17.1325
v  0.0573 4.6196 18.4029
v  3.5221 4.9805 18.1719
v  7.3332 2.7469 -17.5145
v  7.3332 4.8554 -17.5145
v  -7.2186 2.7469 -17.5145
v  -7.2186 4.8554 -17.5145
v  0.0573 2.7469 -17.5145
v  7.4549 5.2342 16.1904
v  3.5221 4.6196 18.2874
v  6.9870 4.9805 17.4020
v  0.0573 2.3098 17.1325
v  3.8107 2.3098 12.1279
v  3.5221 2.8150 18.1719
v  3.5221 3.1759 18.2874
v  0.0573 2.8150 18.2874
v  0.0573 4.8554 -17.5145
v  -3.6961 2.3098 17.1325
v  -3.4075 2.8150 18.1719
v  -7.4495 2.3098 16.3626
v  -3.6961 2.3098 12.1279
v  -3.4075 3.1759 18.2874
v  -6.8723 2.8150 17.4020
v  -7.3402 5.2342 16.1904
v  -4.0680 5.2342 16.8448
v  -7.1421 7.1157 15.8631
v  6.9870 3.1760 17.5175
v  6.9870 4.6196 17.5175
v  6.9870 2.8150 17.4020
v  0.0573 3.1759 18.4029
v  -3.4075 4.6196 18.2874
v  -6.8723 3.1760 17.5175
v  -6.8723 4.9805 17.4020
v  -3.7924 5.1008 17.1325
v  -6.8723 4.6196 17.5175
v  0.0573 2.3098 12.1279
v  -7.6420 3.0958 16.3626
v  -7.4495 2.3098 13.0663
v  -7.6420 4.6998 16.3626
v  7.2579 7.1157 15.8631
v  0.0573 5.1008 -16.7446
v  6.9867 5.1008 -16.7446
v  7.7566 4.6998 -16.7446
v  7.7566 3.4807 -12.9912
v  7.7566 3.4807 6.7504
v  7.7566 4.6998 -2.8858
v  7.7566 5.8707 8.3294
v  4.1827 5.2342 16.8448
v  4.0842 7.1735 16.1904
v  3.7911 7.6993 16.3626
v  -3.9690 7.1735 16.1904
v  -3.6759 7.6993 16.3626
v  -3.3084 8.2581 6.2172
v  0.0573 11.8421 2.0567
v  0.0573 8.1998 6.4497
v  3.6002 8.1728 6.3344
v  3.4231 8.2581 6.2172
v  0.0573 8.2883 6.3344
v  2.4133 11.7324 2.0567
v  0.0573 8.3678 6.2172
v  3.7867 8.0843 6.4497
v  6.7888 7.9107 5.8515
v  -7.0285 7.8071 5.9495
v  -3.4856 8.1728 6.3344
v  -6.6742 7.9107 5.8515
v  -5.2757 11.3613 1.3289
v  -3.6721 8.0843 6.4497
v  7.7566 5.8707 -11.7376
v  7.4042 7.8966 -11.3457
v  7.7566 7.2903 7.5083
v  7.4042 7.8966 -2.5776
v  -5.2858 11.5159 -3.4073
v  -5.2858 11.3444 1.3176
v  -7.2795 7.9144 5.4251
v  -5.2757 11.3613 -8.9290
v  -7.2895 7.8966 -11.3457
v  -7.2795 7.9144 -11.3015
v  -4.9027 11.4654 -9.2182
v  -7.2895 7.8966 -9.3318
v  -7.2895 7.8966 -7.8214
v  -7.2795 7.9144 -3.3266
v  -5.2858 11.5159 -4.1841
v  -5.2757 11.4046 -7.7359
v  -5.2757 11.4371 -6.8410
v  -5.2858 11.3444 -8.9090
v  -5.2858 11.4195 -6.8419
v  5.4253 11.4698 -3.3172
v  7.3692 7.9583 -2.4812
v  5.4253 11.3026 1.2895
v  5.4253 11.3026 -8.8596
v  5.4253 11.4698 -4.2528
v  7.3692 7.9583 -11.1922
v  -7.6420 3.4807 -6.6151
v  -7.6420 4.6998 -2.8858
v  -7.6420 7.2181 10.9730
v  8.1416 5.6782 11.4873
v  -7.6420 3.4807 13.0663
v  -7.4495 2.3098 -6.6151
v  -5.3852 2.3098 -6.6151
v  0.0573 2.3098 -6.6151
v  5.4998 2.3098 -6.6151
v  -7.6420 7.5068 -7.3851
v  8.1416 3.2882 -12.9912
v  -2.4227 11.8312 -9.7957
v  0.0573 11.8377 -10.0519
v  -2.2987 11.7335 -9.8595
v  0.0573 8.3634 -12.4753
v  3.4231 8.2592 -12.2828
v  4.7694 11.3861 -9.2820
v  -4.6547 11.3861 -9.2820
v  -3.3084 8.2592 -12.2828
v  3.6002 8.1740 -12.3466
v  0.0573 7.6993 16.4781
v  8.1416 3.2882 13.0663
v  -8.0270 5.6782 -7.8687
v  -8.0270 3.2882 6.7504
v  -8.0270 3.4675 7.2241
v  -8.0270 5.6782 8.3294
v  -8.0270 5.4990 -8.1589
v  -8.0270 3.2882 -6.6151
v  -8.0270 5.6782 11.4873
v  -8.0270 5.6782 -11.7376
v  -8.0270 3.2882 -12.9912
v  -8.0270 5.4990 -11.4474
v  8.1416 3.2882 -6.6151
v  8.1416 3.4078 -7.0933
v  8.1416 5.6782 -7.8687
v  8.1416 3.4675 12.5926
v  8.1416 5.6782 -11.7376
v  8.1416 5.5587 -11.4474
v  -8.0270 5.4990 11.2505
v  -8.0270 3.2882 13.0663
v  8.1416 5.6782 8.3294
v  8.1416 5.4990 8.5662
v  8.1416 3.2882 6.7504
v  -8.0270 5.4990 8.5662
v  -8.0270 3.4675 12.5926
v  8.1416 3.4675 7.2241
v  8.1416 5.4990 11.2505
v  8.1416 3.4078 -12.5130
v  8.1416 5.5587 -8.1589
v  -8.0270 3.4675 -12.5130
v  -8.0270 3.4675 -7.0933
# 270 vertices

vn -0.8626 -0.0385 0.5044
vn -0.5907 -0.7931 -0.1486
vn -0.9865 -0.1074 0.1235
vn -0.9686 0.0000 -0.2488
vn 0.0000 -0.9669 -0.2553
vn -0.4755 -0.8656 -0.1570
vn -0.0095 0.1017 -0.9948
vn -0.7129 0.4624 -0.5272
vn -0.0140 0.6904 -0.7233
vn 0.0554 0.6935 -0.7184
vn 0.7521 0.3777 -0.5402
vn 0.5021 0.8543 -0.1345
vn 1.0000 0.0000 -0.0000
vn 0.6869 0.0700 -0.7233
vn 0.9571 0.0000 0.2897
vn 0.9084 -0.1601 -0.3862
vn 0.5637 -0.8090 0.1667
vn 0.4221 -0.6205 0.6609
vn -0.4179 -0.8895 0.1847
vn 0.4641 -0.7812 0.4175
vn 0.0000 -1.0000 -0.0000
vn -0.0000 -0.9669 -0.2553
vn 0.6723 -0.7302 -0.1216
vn 0.9594 0.0077 -0.2818
vn 0.3343 -0.9324 -0.1372
vn -0.8937 -0.0063 -0.4487
vn -0.7645 0.6446 0.0043
vn -0.8721 0.4894 0.0033
vn -0.5073 0.8616 -0.0161
vn -0.3958 -0.6606 0.6379
vn -0.8692 0.4942 0.0124
vn 0.0942 0.9955 0.0049
vn 0.5608 0.8274 -0.0291
vn 0.1289 0.4075 -0.9040
vn -0.0051 0.8650 -0.5018
vn -0.1912 0.7999 -0.5689
vn -0.0002 1.0000 0.0010
vn -0.1061 0.9361 -0.3353
vn 0.6883 -0.2883 0.6657
vn -0.5441 0.8327 -0.1027
vn -0.0960 0.7393 -0.6665
vn -0.1225 0.7325 -0.6697
vn -0.1215 0.7442 -0.6568
vn -0.0024 0.9343 0.3566
vn -0.1449 0.9894 -0.0058
vn 0.1235 0.9183 0.3761
vn -0.1212 0.6514 0.7490
vn -0.0397 0.7326 0.6795
vn -0.0010 0.7233 0.6906
vn 0.8653 0.5011 -0.0124
vn 0.0993 0.7458 -0.6588
vn 0.4774 0.7934 -0.3776
vn 0.4198 0.7971 0.4340
vn 0.1954 0.3988 -0.8960
vn 0.8692 0.4942 0.0124
vn 0.7635 0.6458 0.0079
vn 0.8727 0.4882 -0.0033
vn 0.8722 0.4891 -0.0045
vn 0.8718 0.4897 -0.0123
vn -0.3425 0.9124 0.2242
vn -0.1224 0.6623 0.7392
vn -0.1731 0.7088 0.6838
vn 0.0687 0.9861 0.1514
vn -0.0648 0.6508 -0.7565
vn 0.0097 0.8944 -0.4471
vn -0.8305 -0.3538 0.4303
vn -0.4199 0.1550 0.8942
vn -0.7767 -0.3568 0.5191
vn -0.8677 0.4939 0.0566
vn -0.6247 0.7808 0.0082
vn 0.9453 -0.1323 0.2983
vn -0.8654 0.5010 0.0034
vn -0.4778 -0.8465 -0.2351
vn 0.6500 -0.7598 0.0143
vn 0.9958 -0.0896 -0.0196
vn 0.4248 -0.8958 -0.1307
vn 0.9908 -0.0875 -0.1031
vn 0.9223 0.3429 0.1782
vn 0.4322 -0.7892 0.4363
vn -0.9912 -0.0973 0.0898
vn -0.9163 0.3625 -0.1702
vn -0.9969 -0.0789 -0.0056
vn -0.6694 -0.7295 -0.1403
vn 0.1255 0.6578 0.7427
vn 0.9724 -0.1448 0.1830
vn 0.8654 0.5010 0.0034
vn 0.5040 0.8381 0.2086
vn 0.8656 0.5008 0.0040
vn 0.8626 0.5058 0.0126
vn -0.4741 0.7837 -0.4014
vn 0.1441 0.8929 0.4265
vn -0.3996 0.7639 0.5068
vn -0.7052 -0.2730 -0.6543
vn 0.1219 0.6508 0.7494
vn -0.0011 0.6252 -0.7805
vn 0.7331 -0.4262 0.5300
vn 0.0855 0.8453 0.5273
vn 0.2046 0.8682 -0.4521
vn 0.0943 0.5204 -0.8487
vn 0.0034 0.5259 -0.8505
vn 0.8931 0.4485 0.0335
vn -1.0000 0.0000 -0.0000
vn 0.2311 0.3213 -0.9183
vn 0.8040 0.3307 0.4942
vn 0.9095 0.4157 0.0052
vn 0.4531 -0.4942 0.7420
vn 0.8819 0.3953 0.2568
vn -0.8619 0.5057 0.0380
vn -0.0373 0.6481 -0.7606
vn -0.6075 0.4090 -0.6809
vn -0.9982 0.0574 -0.0188
vn 0.0036 0.9898 0.1425
vn -0.0949 0.2419 0.9657
vn 0.0774 0.7495 0.6575
vn 0.0817 0.9017 0.4245
vn -0.0302 0.1670 0.9855
vn 0.1030 0.7582 0.6438
vn 0.4517 -0.4241 -0.7849
vn 0.4218 0.5284 -0.7368
vn -0.4176 -0.4072 -0.8123
vn -0.3892 0.5738 -0.7206
vn -0.0447 -0.5180 -0.8542
vn -0.3989 -0.0175 0.9168
vn 0.0919 0.1667 0.9817
vn 0.3518 0.7334 0.5817
vn -0.6432 -0.7504 0.1524
vn 0.0206 -0.6168 0.7868
vn 0.1490 -0.1629 0.9753
vn -0.0427 -0.6498 0.7589
vn 0.0548 0.6055 -0.7940
vn -0.8127 -0.5461 0.2031
vn -0.1193 -0.6340 0.7641
vn -0.8924 -0.3836 0.2376
vn -0.0919 -0.1667 0.9817
vn -0.4253 -0.5694 0.7035
vn -0.6473 0.0177 0.7620
vn 0.4556 0.3853 0.8025
vn 0.5766 -0.1062 0.8101
vn 0.5097 0.1512 0.8469
vn 0.0302 -0.1670 0.9855
vn -0.1183 0.5044 0.8554
vn -0.5405 -0.0262 0.8409
vn -0.3217 0.6669 0.6722
vn -0.1683 0.9245 0.3421
vn -0.4350 -0.5686 0.6982
vn -0.8847 -0.3824 0.2666
vn -0.4565 -0.8871 0.0685
vn -0.7980 0.5188 0.3067
vn -0.0908 -0.1266 0.9878
vn 0.0562 0.6719 -0.7385
vn 0.1340 0.7104 -0.6909
vn 0.7877 -0.5284 -0.3166
vn 0.7456 0.5352 -0.3971
vn 0.8173 0.1478 -0.5570
vn 0.9966 0.0007 -0.0818
vn 0.7858 0.5540 0.2750
vn 0.4082 -0.0586 0.9110
vn -0.1792 0.2500 0.9515
vn -0.8343 0.3699 -0.4088
vn 0.0682 0.7234 0.6871
vn 0.0006 0.7932 0.6089
vn 0.0822 0.8549 0.5122
vn 0.0366 0.8102 0.5849
vn 0.0006 0.8106 0.5856
vn 0.9202 -0.2245 0.3206
vn -0.0911 0.8054 0.5857
vn 0.1163 0.8700 0.4791
vn 0.1121 0.8344 0.5397
vn -0.0876 0.8477 0.5231
vn -0.0820 0.8549 0.5123
vn -0.4823 0.5695 -0.6656
vn -0.8626 0.5058 0.0126
vn -0.1146 0.8687 0.4819
vn 0.9990 0.0319 -0.0308
vn 0.8662 0.4997 -0.0034
vn 0.0467 0.9905 0.1290
vn 0.8721 0.4894 0.0033
vn -0.8645 0.5025 0.0103
vn -0.8654 0.5011 0.0030
vn -0.8956 -0.1629 0.4140
vn -0.7713 0.6161 0.1600
vn -0.6980 -0.4333 -0.5701
vn -0.8660 0.5000 -0.0028
vn -0.1392 0.3186 -0.9376
vn -0.8699 0.4933 -0.0000
vn -0.6949 -0.3815 0.6096
vn -0.5315 0.0170 -0.8469
vn -0.8638 -0.5039 0.0020
vn -0.8690 0.4947 -0.0000
vn -0.8729 0.4878 -0.0142
vn -0.8656 -0.5003 0.0205
vn -0.8597 -0.5082 0.0507
vn -0.4054 0.8305 -0.3820
vn -0.3859 -0.6323 -0.6718
vn -0.8724 0.4885 -0.0179
vn 0.8861 0.4634 -0.0089
vn 0.3856 0.9227 -0.0000
vn 0.8595 0.5110 0.0153
vn 0.8666 0.4990 -0.0105
vn -0.5829 0.6412 -0.4990
vn -0.8425 -0.5386 -0.0027
vn -0.7960 0.0568 0.6026
vn 0.7431 0.5322 0.4057
vn -0.8168 0.0775 0.5716
vn -0.3967 -0.8955 0.2015
vn 0.8746 -0.1419 -0.4636
vn -0.5018 0.8644 -0.0314
vn -0.4997 0.8655 -0.0358
vn -0.1710 0.3772 -0.9102
vn -0.0386 0.5426 -0.8391
vn -0.8942 -0.3612 -0.2646
vn 0.0342 0.6070 -0.7939
vn 0.7623 0.5305 0.3708
vn -0.6852 -0.5485 -0.4792
vn -0.0812 0.6517 -0.7541
vn 0.1273 0.1128 -0.9854
vn -0.0186 0.2182 0.9757
vn -0.0291 0.2847 0.9582
vn 0.0167 0.3438 0.9389
vn 0.0293 0.2847 0.9582
vn 0.0296 0.2852 0.9580
vn -0.0287 0.2852 0.9581
vn 0.4491 -0.6710 0.5901
vn -0.7689 0.5014 0.3966
vn -0.5442 -0.0014 -0.8389
vn -0.9894 -0.1360 0.0515
vn -0.7431 0.5322 -0.4057
vn -0.8725 -0.1373 0.4688
vn -0.7792 0.5079 0.3673
vn -0.0572 0.7858 -0.6159
vn -0.7158 -0.2393 -0.6561
vn 0.5700 -0.0135 0.8215
vn 0.9867 -0.1577 -0.0394
vn 0.7251 0.5075 0.4654
vn 0.9894 -0.1360 -0.0515
vn 0.1060 0.7738 -0.6245
vn -0.8603 -0.1077 0.4983
vn 0.1017 0.8358 -0.5396
vn 0.8603 -0.1077 -0.4983
vn 0.3878 0.5081 0.7691
vn -0.3878 0.5081 -0.7691
vn -0.1015 0.4416 -0.8915
vn -0.1697 0.3262 -0.9300
vn 0.1941 0.4557 0.8687
# 244 vertex normals

vt 0.3580 0.0648 0.0000
vt 0.3580 0.0927 0.0000
vt 0.2687 0.0648 0.0000
vt 0.3580 0.0358 0.0000
vt 0.2687 0.0927 0.0000
vt 0.1334 0.6248 0.0000
vt 0.1336 0.7864 0.0000
vt 0.1190 0.6248 0.0000
vt 0.1214 0.5465 0.0000
vt 0.5431 0.8028 0.0000
vt 0.5410 0.7195 0.0000
vt 0.6359 0.7978 0.0000
vt 0.5410 0.7977 0.0000
vt 0.0790 0.4943 0.0000
vt 0.0912 0.4110 0.0000
vt 0.1417 0.4110 0.0000
vt 0.0910 0.5726 0.0000
vt 0.3877 0.1218 0.0000
vt 0.3877 0.1555 0.0000
vt 0.3877 0.1720 0.0000
vt 0.3185 0.1474 0.0000
vt 0.4102 0.0148 0.0000
vt 0.4192 0.0584 0.0000
vt 0.3719 0.0148 0.0000
vt 0.3719 0.0125 0.0000
vt 0.0689 0.0322 0.0000
vt 0.0689 0.1021 0.0000
vt 0.0252 0.0235 0.0000
vt 0.0252 0.0148 0.0000
vt 0.0252 0.0125 0.0000
vt 0.0689 0.0148 0.0000
vt 0.2648 0.5335 0.0000
vt 0.2915 0.4415 0.0000
vt 0.2979 0.4462 0.0000
vt 0.2713 0.5385 0.0000
vt 0.2985 0.4467 0.0000
vt 0.2798 0.5335 0.0000
vt 0.2470 0.6670 0.0000
vt 0.1648 0.6670 0.0000
vt 0.2470 0.4818 0.0000
vt 0.3292 0.4757 0.0000
vt 0.4147 0.4818 0.0000
vt 0.3325 0.6670 0.0000
vt 0.6238 0.5629 0.0000
vt 0.5410 0.4848 0.0000
vt 0.6359 0.4846 0.0000
vt 0.6373 0.4925 0.0000
vt 0.6387 0.4999 0.0000
vt 0.6252 0.5668 0.0000
vt 0.3292 0.8461 0.0000
vt 0.4147 0.6670 0.0000
vt 0.4114 0.8461 0.0000
vt 0.4073 0.8497 0.0000
vt 0.8281 0.9187 0.0000
vt 0.7881 0.9022 0.0000
vt 0.7901 0.9006 0.0000
vt 0.8281 0.9168 0.0000
vt 0.4730 0.5902 0.0000
vt 0.5592 0.5255 0.0000
vt 0.5578 0.5328 0.0000
vt 0.4752 0.5952 0.0000
vt 0.5564 0.5398 0.0000
vt 0.4780 0.5991 0.0000
vt 0.3025 0.7838 0.0000
vt 0.3142 0.8643 0.0000
vt 0.3057 0.8601 0.0000
vt 0.2940 0.7794 0.0000
vt 0.3031 0.8588 0.0000
vt 0.2875 0.7838 0.0000
vt 0.4936 0.6670 0.0000
vt 0.4936 0.8339 0.0000
vt 0.4854 0.8376 0.0000
vt 0.3705 0.9704 0.0000
vt 0.3213 0.9582 0.0000
vt 0.3270 0.9562 0.0000
vt 0.3737 0.9676 0.0000
vt 0.6238 0.7195 0.0000
vt 0.5410 0.6412 0.0000
vt 0.5410 0.5630 0.0000
vt 0.6198 0.6412 0.0000
vt 0.0689 0.1719 0.0000
vt 0.0689 0.1894 0.0000
vt 0.0252 0.1806 0.0000
vt 0.0252 0.1021 0.0000
vt 0.1483 0.5360 0.0000
vt 0.1575 0.4833 0.0000
vt 0.1667 0.4879 0.0000
vt 0.2644 0.5176 0.0000
vt 0.7218 0.4806 0.0000
vt 0.7298 0.4865 0.0000
vt 0.3339 0.4937 0.0000
vt 0.3339 0.4877 0.0000
vt 0.5217 0.4937 0.0000
vt 0.5094 0.4984 0.0000
vt 0.3073 0.1457 0.0000
vt 0.2985 0.1894 0.0000
vt 0.1864 0.1457 0.0000
vt 0.1864 0.1021 0.0000
vt 0.1864 0.0584 0.0000
vt 0.3073 0.1021 0.0000
vt 0.3073 0.0584 0.0000
vt 0.1864 0.0148 0.0000
vt 0.1706 0.5632 0.0000
vt 0.1706 0.5610 0.0000
vt 0.2826 0.5632 0.0000
vt 0.2915 0.6069 0.0000
vt 0.2359 0.9528 0.0000
vt 0.2096 0.9027 0.0000
vt 0.3142 0.9528 0.0000
vt 0.3142 0.9774 0.0000
vt 0.1706 0.6069 0.0000
vt 0.1272 0.5632 0.0000
vt 0.1272 0.5610 0.0000
vt 0.3348 0.5224 0.0000
vt 0.2972 0.4655 0.0000
vt 0.5642 0.5224 0.0000
vt 0.5642 0.5502 0.0000
vt 0.4797 0.1441 0.0000
vt 0.4797 0.1005 0.0000
vt 0.5918 0.1441 0.0000
vt 0.5918 0.1463 0.0000
vt 0.9090 0.9090 0.0000
vt 0.9498 0.8362 0.0000
vt 0.9479 0.8457 0.0000
vt 0.9132 0.9109 0.0000
vt 0.4053 0.7835 0.0000
vt 0.4898 0.8601 0.0000
vt 0.4859 0.8588 0.0000
vt 0.4027 0.7874 0.0000
vt 0.4969 0.5000 0.0000
vt 0.2470 0.8461 0.0000
vt 0.1648 0.8339 0.0000
vt 0.2830 0.4462 0.0000
vt 0.1613 0.8300 0.0000
vt 0.8580 0.9063 0.0000
vt 0.8706 0.9189 0.0000
vt 0.5861 0.6625 0.0000
vt 0.5933 0.7243 0.0000
vt 0.5907 0.7218 0.0000
vt 0.5840 0.6632 0.0000
vt 0.9050 0.9071 0.0000
vt 0.9437 0.8380 0.0000
vt 0.4879 0.6469 0.0000
vt 0.4905 0.6483 0.0000
vt 0.4965 0.6939 0.0000
vt 0.4930 0.6496 0.0000
vt 0.4989 0.6929 0.0000
vt 0.3142 0.8683 0.0000
vt 0.3142 0.9188 0.0000
vt 0.2198 0.8683 0.0000
vt 0.1182 0.8683 0.0000
vt 0.4691 0.0526 0.0000
vt 0.4431 0.0821 0.0000
vt 0.5588 0.1081 0.0000
vt 0.4628 0.0442 0.0000
vt 0.4438 0.1450 0.0000
vt 0.4438 0.1534 0.0000
vt 0.5462 0.1288 0.0000
vt 0.5570 0.1005 0.0000
vt 0.6066 0.4787 0.0000
vt 0.7252 0.5176 0.0000
vt 0.6066 0.5448 0.0000
vt 0.3591 0.4839 0.0000
vt 0.5965 0.5934 0.0000
vt 0.3396 0.5176 0.0000
vt 0.4840 0.0408 0.0000
vt 0.4505 0.0251 0.0000
vt 0.4835 0.1679 0.0000
vt 0.8288 0.4787 0.0000
vt 0.9365 0.5360 0.0000
vt 0.8471 0.5745 0.0000
vt 0.8173 0.5176 0.0000
vt 0.2439 0.0853 0.0000
vt 0.3264 0.1075 0.0000
vt 0.2439 0.1102 0.0000
vt 0.1522 0.0825 0.0000
vt 0.2439 0.1139 0.0000
vt 0.1614 0.1075 0.0000
vt 0.0410 0.1374 0.0000
vt 0.0410 0.0931 0.0000
vt 0.0572 0.1220 0.0000
vt 0.0572 0.1465 0.0000
vt 0.1630 0.1261 0.0000
vt 0.1661 0.0979 0.0000
vt 0.2690 0.1602 0.0000
vt 0.2650 0.1359 0.0000
vt 0.0252 0.1894 0.0000
vt 0.0163 0.1867 0.0000
vt 0.0606 0.0643 0.0000
vt 0.0678 0.0599 0.0000
vt 0.1614 0.1112 0.0000
vt 0.0789 0.0892 0.0000
vt 0.4192 0.1021 0.0000
vt 0.3610 0.0584 0.0000
vt 0.4313 0.0618 0.0000
vt 0.4326 0.0618 0.0000
vt 0.4326 0.1021 0.0000
vt 0.2679 0.0939 0.0000
vt 0.3708 0.1562 0.0000
vt 0.3638 0.1703 0.0000
vt 0.0163 0.1021 0.0000
vt 0.4192 0.1457 0.0000
vt 0.4313 0.1424 0.0000
vt 0.4102 0.1894 0.0000
vt 0.3610 0.1457 0.0000
vt 0.4326 0.1424 0.0000
vt 0.4223 0.1827 0.0000
vt 0.4570 0.5026 0.0000
vt 0.4626 0.4654 0.0000
vt 0.4634 0.5070 0.0000
vt 0.3912 0.5108 0.0000
vt 0.1497 0.2664 0.0000
vt 0.1619 0.2630 0.0000
vt 0.1510 0.3351 0.0000
vt 0.0234 0.3510 0.0000
vt 0.1049 0.1079 0.0000
vt 0.1083 0.0840 0.0000
vt 0.1787 0.1181 0.0000
vt 0.1775 0.1226 0.0000
vt 0.4237 0.0215 0.0000
vt 0.4223 0.0215 0.0000
vt 0.1821 0.0942 0.0000
vt 0.2506 0.1199 0.0000
vt 0.2495 0.1243 0.0000
vt 0.2143 0.1087 0.0000
vt 0.2143 0.1389 0.0000
vt 0.1398 0.1087 0.0000
vt 0.1392 0.1009 0.0000
vt 0.2540 0.0960 0.0000
vt 0.3219 0.1186 0.0000
vt 0.3208 0.1231 0.0000
vt 0.4340 0.1021 0.0000
vt 0.3877 0.1134 0.0000
vt 0.4096 0.1159 0.0000
vt 0.4120 0.1235 0.0000
vt 0.3421 0.0754 0.0000
vt 0.4272 0.0643 0.0000
vt 0.4089 0.0892 0.0000
vt 0.3355 0.0825 0.0000
vt 0.4089 0.0930 0.0000
vt 0.3610 0.1021 0.0000
vt 0.1243 0.1259 0.0000
vt 0.2028 0.1446 0.0000
vt 0.1243 0.1446 0.0000
vt 0.0996 0.1326 0.0000
vt 0.0968 0.1240 0.0000
vt 0.1243 0.0877 0.0000
vt 0.1207 0.5541 0.0000
vt 0.1071 0.5939 0.0000
vt 0.1096 0.5505 0.0000
vt 0.1160 0.5523 0.0000
vt 0.4552 0.0574 0.0000
vt 0.5713 0.0390 0.0000
vt 0.4552 0.0669 0.0000
vt 0.4277 0.0688 0.0000
vt 0.1243 0.0781 0.0000
vt 0.0968 0.0896 0.0000
vt 0.0996 0.0810 0.0000
vt 0.1398 0.1389 0.0000
vt 0.1187 0.1393 0.0000
vt 0.4120 0.1538 0.0000
vt 0.0743 0.1254 0.0000
vt 0.1432 0.1232 0.0000
vt 0.0738 0.1329 0.0000
vt 0.0031 0.1267 0.0000
vt 0.1826 0.0868 0.0000
vt 0.1088 0.0765 0.0000
vt 0.1870 0.1093 0.0000
vt 0.1687 0.1002 0.0000
vt 0.1870 0.0921 0.0000
vt 0.1870 0.1004 0.0000
vt 0.3763 0.0321 0.0000
vt 0.3763 0.0823 0.0000
vt 0.4503 0.0992 0.0000
vt 0.4815 0.0992 0.0000
vt 0.4503 0.0097 0.0000
vt 0.4471 0.0052 0.0000
vt 0.3696 0.0898 0.0000
vt 0.2677 0.0861 0.0000
vt 0.4514 0.1795 0.0000
vt 0.4825 0.1895 0.0000
vt 0.4483 0.0900 0.0000
vt 0.1708 0.0900 0.0000
vt 0.4290 0.1414 0.0000
vt 0.4183 0.1312 0.0000
vt 0.4193 0.1260 0.0000
vt 0.4368 0.1261 0.0000
vt 0.0572 0.0964 0.0000
vt 0.1360 0.1220 0.0000
vt 0.5165 0.9528 0.0000
vt 0.3142 0.9272 0.0000
vt 0.5497 0.9027 0.0000
vt 0.5165 0.9774 0.0000
vt 0.1541 0.3569 0.0000
vt 0.0402 0.3426 0.0000
vt 0.1618 0.2904 0.0000
vt 0.1745 0.2798 0.0000
vt 0.0302 0.3498 0.0000
vt 0.0525 0.2846 0.0000
vt 0.0246 0.2723 0.0000
vt 0.0133 0.3624 0.0000
vt 0.1459 0.9251 0.0000
vt 0.1151 0.9559 0.0000
vt 0.1453 0.9120 0.0000
vt 0.2014 0.9567 0.0000
vt 0.1894 0.9718 0.0000
vt 0.1102 0.9718 0.0000
vt 0.1178 0.9611 0.0000
vt 0.1846 0.9663 0.0000
vt 0.2207 0.5101 0.0000
vt 0.2332 0.4632 0.0000
vt 0.2269 0.5161 0.0000
vt 0.1512 0.5014 0.0000
vt 0.2073 0.9549 0.0000
vt 0.7738 0.8329 0.0000
vt 0.8284 0.8921 0.0000
vt 0.8285 0.8293 0.0000
vt 0.8861 0.8315 0.0000
vt 0.8832 0.8334 0.0000
vt 0.8285 0.8312 0.0000
vt 0.8567 0.8922 0.0000
vt 0.8285 0.8330 0.0000
vt 0.8892 0.8296 0.0000
vt 0.9379 0.8396 0.0000
vt 0.7133 0.8369 0.0000
vt 0.7073 0.8350 0.0000
vt 0.7709 0.8309 0.0000
vt 0.7191 0.8385 0.0000
vt 0.7416 0.9122 0.0000
vt 0.7435 0.9101 0.0000
vt 0.7477 0.9083 0.0000
vt 0.7679 0.8291 0.0000
vt 0.4764 0.9867 0.0000
vt 0.4744 0.9832 0.0000
vt 0.5227 0.9892 0.0000
vt 0.5273 0.9929 0.0000
vt 0.0163 0.0722 0.0000
vt 0.0163 0.0207 0.0000
vt 0.0196 0.0254 0.0000
vt 0.1284 0.9027 0.0000
vt 0.0335 0.8683 0.0000
vt 0.1366 0.8601 0.0000
vt 0.1263 0.8643 0.0000
vt 0.3145 0.8288 0.0000
vt 0.3062 0.8333 0.0000
vt 0.1485 0.7872 0.0000
vt 0.1208 0.4805 0.0000
vt 0.2261 0.4731 0.0000
vt 0.2285 0.4805 0.0000
vt 0.5324 0.8729 0.0000
vt 0.3207 0.8601 0.0000
vt 0.5021 0.8643 0.0000
vt 0.7102 0.8724 0.0000
vt 0.6051 0.8744 0.0000
vt 0.6159 0.9027 0.0000
vt 0.4374 0.7804 0.0000
vt 0.0415 0.7679 0.0000
vt 0.1466 0.7647 0.0000
vt 0.1460 0.4937 0.0000
vt 0.0531 0.4877 0.0000
vt 0.0510 0.4937 0.0000
vt 0.0510 0.5387 0.0000
vt 0.8075 0.1483 0.0000
vt 0.8068 0.1488 0.0000
vt 0.8255 0.0619 0.0000
vt 0.9067 0.1452 0.0000
vt 0.3826 0.5349 0.0000
vt 0.3800 0.5304 0.0000
vt 0.3797 0.5299 0.0000
vt 0.4671 0.4462 0.0000
vt 0.4794 0.4415 0.0000
vt 0.5083 0.4989 0.0000
vt 0.3403 0.4984 0.0000
vt 0.1646 0.5304 0.0000
vt 0.1600 0.5349 0.0000
vt 0.1139 0.4462 0.0000
vt 0.1148 0.4467 0.0000
vt 0.1585 0.5361 0.0000
vt 0.1036 0.4415 0.0000
vt 0.1985 0.4984 0.0000
vt 0.1563 0.4984 0.0000
vt 0.3254 0.4984 0.0000
vt 0.2302 0.4984 0.0000
vt 0.3246 0.4989 0.0000
vt 0.2642 0.5331 0.0000
vt 0.1897 0.5312 0.0000
vt 0.2084 0.5317 0.0000
vt 0.1650 0.5299 0.0000
vt 0.7912 0.1483 0.0000
vt 0.7354 0.1465 0.0000
vt 0.8092 0.0619 0.0000
vt 0.8100 0.0615 0.0000
vt 0.6921 0.1452 0.0000
vt 0.6916 0.1456 0.0000
vt 0.6418 0.0619 0.0000
vt 0.9930 0.0619 0.0000
vt 0.8250 0.0615 0.0000
vt 0.2805 0.5331 0.0000
vt 0.4659 0.4467 0.0000
vt 0.3052 0.7851 0.0000
vt 0.6856 0.2678 0.0000
vt 0.6836 0.2691 0.0000
vt 0.6680 0.1941 0.0000
vt 0.8488 0.2678 0.0000
vt 0.4019 0.7886 0.0000
vt 0.3227 0.8588 0.0000
vt 0.1874 0.7874 0.0000
vt 0.1888 0.7886 0.0000
vt 0.1648 0.5000 0.0000
vt 0.1613 0.6572 0.0000
vt 0.2855 0.7851 0.0000
vt 0.1827 0.7835 0.0000
vt 0.6597 0.3798 0.0000
vt 0.6565 0.3811 0.0000
vt 0.7087 0.3096 0.0000
vt 0.8229 0.3798 0.0000
vt 0.8054 0.3061 0.0000
vt 0.8074 0.3047 0.0000
vt 0.6654 0.1927 0.0000
vt 0.7647 0.1976 0.0000
vt 0.0163 0.0175 0.0000
vt 0.6853 0.5934 0.0000
vt 0.5965 0.5643 0.0000
vt 0.3719 0.1894 0.0000
vt 0.2766 0.4856 0.0000
vt 0.6159 0.9067 0.0000
vt 0.2028 0.1167 0.0000
vt 0.2985 0.0148 0.0000
vt 0.3435 0.4731 0.0000
vt 0.3795 0.4731 0.0000
vt 0.4274 0.4731 0.0000
vt 0.0701 0.5240 0.0000
vt 0.0701 0.5662 0.0000
vt 0.0696 0.5249 0.0000
vt 0.1430 0.1894 0.0000
vt 0.1430 0.1654 0.0000
vt 0.1430 0.1021 0.0000
vt 0.1430 0.0388 0.0000
vt 0.7137 0.4787 0.0000
vt 0.1021 0.9528 0.0000
vt 0.0233 0.9188 0.0000
vt 0.1360 0.1260 0.0000
vt 0.1360 0.1465 0.0000
vt 0.1430 0.0148 0.0000
vt 0.6853 0.6124 0.0000
vt 0.5466 0.1775 0.0000
vt 0.5466 0.1535 0.0000
vt 0.5900 0.1775 0.0000
vt 0.5900 0.1797 0.0000
vt 0.1864 0.1894 0.0000
vt 0.2084 0.5313 0.0000
vt 0.1398 0.8588 0.0000
vt 0.1654 0.4848 0.0000
vt 0.2123 0.4843 0.0000
vt 0.2482 0.4843 0.0000
vt 0.1572 0.4989 0.0000
vt 0.7167 0.1464 0.0000
vt 0.5037 0.7063 0.0000
vt 0.5011 0.7090 0.0000
vt 0.5047 0.6540 0.0000
vt 0.5072 0.6541 0.0000
vt 0.8438 0.3114 0.0000
vt 0.8419 0.3144 0.0000
vt 0.8402 0.2730 0.0000
vt 0.9211 0.2447 0.0000
vt 0.8320 0.2306 0.0000
vt 0.9103 0.1850 0.0000
vt 0.8380 0.2739 0.0000
vt 0.4806 0.6027 0.0000
vt 0.8196 0.1837 0.0000
vt 0.8954 0.1208 0.0000
vt 0.8295 0.2293 0.0000
vt 0.5033 0.7594 0.0000
vt 0.5010 0.7649 0.0000
vt 0.5062 0.7037 0.0000
vt 0.8446 0.3352 0.0000
vt 0.8424 0.3404 0.0000
vt 0.8452 0.2847 0.0000
vt 0.9334 0.3068 0.0000
vt 0.6212 0.6412 0.0000
vt 0.6252 0.7156 0.0000
vt 0.6265 0.7119 0.0000
vt 0.6373 0.7900 0.0000
vt 0.1288 0.6560 0.0000
vt 0.1311 0.5956 0.0000
vt 0.1335 0.6018 0.0000
vt 0.5028 0.7692 0.0000
vt 0.5042 0.7644 0.0000
vt 0.5932 0.7759 0.0000
vt 0.5965 0.7814 0.0000
vt 0.5009 0.7365 0.0000
vt 0.5746 0.5964 0.0000
vt 0.9120 0.1813 0.0000
vt 0.9355 0.3105 0.0000
vt 0.9323 0.3784 0.0000
vt 0.8968 0.1138 0.0000
vt 0.9231 0.2441 0.0000
vt 0.9272 0.3005 0.0000
vt 0.5901 0.7707 0.0000
vt 0.5882 0.7195 0.0000
vt 0.8288 0.7735 0.0000
vt 0.6701 0.7499 0.0000
vt 0.8426 0.6215 0.0000
vt 1.0073 0.6550 0.0000
vt 0.9885 0.8061 0.0000
vt 0.6790 0.5970 0.0000
vt 0.1214 0.7030 0.0000
vt 0.4977 0.1910 0.0000
vt 0.4979 0.0294 0.0000
vt 0.4472 0.0294 0.0000
vt 0.1417 0.4271 0.0000
vt 0.5130 0.1790 0.0000
vt 0.5130 0.1830 0.0000
vt 0.7252 0.5222 0.0000
vt 0.0233 0.9272 0.0000
vt 0.3580 0.0262 0.0000
vt 0.0217 0.1158 0.0000
vt 0.0163 0.1504 0.0000
vt 0.0170 0.1176 0.0000
vt 0.0165 0.1050 0.0000
vt 0.1451 0.0616 0.0000
vt 0.1827 0.1231 0.0000
vt 0.1714 0.1188 0.0000
vt 0.1451 0.0662 0.0000
vt 0.0455 0.1213 0.0000
vt 0.0754 0.0690 0.0000
vt 0.0823 0.0732 0.0000
vt 0.0455 0.1259 0.0000
vt 0.2577 0.1550 0.0000
vt 0.2577 0.1465 0.0000
vt 0.3328 0.1465 0.0000
vt 0.3328 0.1550 0.0000
vt 0.2285 0.1764 0.0000
vt 0.3206 0.1848 0.0000
vt 0.2285 0.1848 0.0000
vt 0.1986 0.1266 0.0000
vt 0.2354 0.1727 0.0000
vt 0.3206 0.1764 0.0000
vt 0.1004 0.1598 0.0000
vt 0.0410 0.1500 0.0000
vt 0.0970 0.1514 0.0000
vt 0.1204 0.1498 0.0000
vt 0.2435 0.0718 0.0000
vt 0.2698 0.1260 0.0000
vt 0.2232 0.1613 0.0000
vt 0.2069 0.1137 0.0000
vt 0.3772 0.0697 0.0000
vt 0.4104 0.1239 0.0000
vt 0.4004 0.1201 0.0000
vt 0.3772 0.0737 0.0000
vt 0.1603 0.1459 0.0000
vt 0.2031 0.1372 0.0000
vt 0.1593 0.1549 0.0000
vt 0.0858 0.1375 0.0000
vt 0.1257 0.1137 0.0000
vt 0.1684 0.0783 0.0000
vt 0.0848 0.1465 0.0000
vt 0.1844 0.5224 0.0000
vt 0.1060 0.4933 0.0000
vt 0.2220 0.4655 0.0000
vt 0.2220 0.4701 0.0000
vt 0.0323 0.1185 0.0000
vt 0.0699 0.0662 0.0000
vt 0.0755 0.0705 0.0000
vt 0.0323 0.1231 0.0000
vt 0.2800 0.0964 0.0000
vt 0.3129 0.0734 0.0000
vt 0.2798 0.1052 0.0000
vt 0.2137 0.0952 0.0000
vt 0.2778 0.1198 0.0000
vt 0.3109 0.0737 0.0000
vt 0.3159 0.0775 0.0000
vt 0.2778 0.1239 0.0000
vt 0.0937 0.1289 0.0000
vt 0.1531 0.1387 0.0000
vt 0.0971 0.1373 0.0000
vt 0.0737 0.1388 0.0000
vt 0.1394 0.0705 0.0000
vt 0.0436 0.1188 0.0000
vt 0.0323 0.1464 0.0000
vt 0.1123 0.1184 0.0000
vt 0.1818 0.1226 0.0000
vt 0.1179 0.1226 0.0000
vt 0.1827 0.1464 0.0000
vt 0.1780 0.1648 0.0000
vt 0.1739 0.1729 0.0000
vt 0.1534 0.1608 0.0000
vt 0.2877 0.1201 0.0000
vt 0.2778 0.1444 0.0000
vt 0.3722 0.0775 0.0000
vt 0.0755 0.1323 0.0000
vt 0.0805 0.1341 0.0000
vt 0.0701 0.1556 0.0000
vt 0.0694 0.1276 0.0000
vt 0.1413 0.1158 0.0000
vt 0.1321 0.1112 0.0000
vt 0.1459 0.0879 0.0000
vt 0.1460 0.1235 0.0000
vt 0.2008 0.1162 0.0000
vt 0.2698 0.1465 0.0000
vt 0.2252 0.0664 0.0000
vt 0.2806 0.0729 0.0000
vt 0.2163 0.0748 0.0000
vt 0.1954 0.0645 0.0000
vt 0.2798 0.0648 0.0000
vt 0.1606 0.0732 0.0000
vt 0.0569 0.1216 0.0000
vt 0.0455 0.1492 0.0000
vt 0.0089 0.1057 0.0000
vt 0.0170 0.1097 0.0000
vt 0.0049 0.1303 0.0000
vt 0.7518 0.9063 0.0000
vt 0.4724 0.9799 0.0000
vt 0.4241 0.9774 0.0000
vt 0.4246 0.9744 0.0000
# 615 texture coords

o Car
g Car
usemtl 03___Default
s off
f 1/1/1 2/2/2 3/3/3 4/4/4 
f 2/2/2 5/2/5 6/5/6 3/3/3 
f 7/6/7 8/7/8 9/8/9 10/9/10 
f 11/10/11 10/11/10 12/12/12 13/13/13 
f 10/14/10 11/15/11 14/16/14 7/17/7 
f 15/18/15 16/19/16 17/20/17 18/21/18 
f 17/22/17 19/23/19 20/24/20 18/25/18 
f 21/26/21 22/27/21 23/28/22 24/29/23 
f 24/29/23 25/30/24 26/31/25 21/26/21 
f 27/32/26 28/33/27 29/34/28 30/35/29 
f 29/34/28 31/36/30 32/37/31 30/35/29 
f 33/38/32 34/39/33 35/40/34 36/41/35 
f 36/41/35 37/42/36 38/43/37 33/38/32 
f 39/44/38 40/45/39 41/46/40 42/47/41 
f 39/44/38 42/47/41 43/48/42 44/49/43 
f 45/50/44 46/51/45 47/52/46 48/53/47 
f 45/54/44 48/55/47 49/56/48 50/57/49 
f 51/58/50 12/59/12 52/60/51 53/61/52 
f 53/61/52 52/60/51 54/62/53 55/63/54 
f 56/64/55 57/65/56 58/66/57 34/67/33 
f 58/66/57 59/68/58 60/69/59 34/67/33 
f 47/52/46 30/70/29 61/71/60 62/72/61 
f 47/73/46 62/74/61 63/75/62 48/76/47 
f 64/77/63 12/12/12 10/11/10 9/78/9 
f 9/78/9 65/79/64 66/80/65 64/77/63 
f 67/81/21 6/82/6 5/83/5 68/84/5 
f 68/84/5 23/28/22 22/27/21 67/81/21 
f 69/85/66 70/86/67 71/87/68 72/88/69 
f 71/89/68 70/90/67 28/91/27 73/92/70 
f 28/91/27 70/90/67 74/93/71 75/94/72 
f 65/79/64 40/45/39 39/44/38 66/80/65 
f 76/95/21 77/96/73 78/97/21 79/98/21 
f 79/98/21 80/99/21 81/100/21 76/95/21 
f 82/101/21 81/100/21 80/99/21 83/102/74 
f 83/103/74 84/104/75 85/105/76 82/106/21 
f 86/107/77 87/108/78 84/109/75 83/110/74 
f 83/103/74 80/111/21 88/112/79 86/113/77 
f 89/114/80 90/115/81 91/116/82 92/117/83 
f 92/118/83 78/119/21 77/120/73 89/121/80 
f 93/122/84 94/123/85 95/124/86 96/125/87 
f 96/126/87 95/127/86 97/128/88 98/129/89 
f 46/51/45 99/130/90 30/70/29 47/52/46 
f 100/131/91 96/132/87 33/38/32 38/43/37 
f 38/43/37 46/51/45 45/50/44 100/131/91 
f 27/32/92 101/133/93 28/33/27 
f 96/132/87 98/134/89 34/39/33 33/38/32 
f 45/54/44 50/57/49 102/135/94 100/136/91 
f 66/137/65 39/138/38 44/139/43 103/140/95 
f 93/122/84 104/141/96 105/142/97 94/123/85 
f 35/143/34 55/63/54 106/144/98 36/145/35 
f 36/145/35 106/144/98 107/146/99 108/147/100 
f 109/148/101 110/149/13 111/150/102 112/151/103 
f 110/149/13 84/109/75 87/108/78 111/150/102 
f 113/152/13 114/153/104 115/154/105 116/155/106 
f 114/156/104 15/157/15 117/158/107 115/159/105 
f 73/160/102 118/161/108 119/162/102 120/163/102 
f 120/163/102 119/162/102 91/164/82 90/165/81 
f 8/166/8 121/167/109 122/167/110 123/168/102 
f 123/169/102 122/170/110 3/171/3 124/172/111 
f 125/173/112 126/174/113 127/175/114 128/176/115 
f 127/175/114 129/177/116 130/178/117 128/176/115 
f 131/179/118 132/180/119 25/181/24 24/182/23 
f 133/183/120 134/184/121 135/185/122 68/186/5 
f 5/83/5 2/187/2 133/188/120 68/84/5 
f 114/189/104 136/190/123 128/176/115 130/178/117 
f 130/178/117 137/191/124 138/192/125 114/189/104 
f 139/193/126 140/194/21 19/23/19 141/195/127 
f 141/195/127 142/196/128 143/197/129 139/193/126 
f 144/198/130 131/199/118 23/200/22 135/185/122 
f 135/201/122 23/28/22 68/84/5 
f 145/202/131 146/203/132 147/204/133 148/205/21 
f 146/203/132 149/206/134 150/207/135 147/204/133 
f 151/208/13 70/209/67 69/210/66 152/211/136 
f 153/212/137 70/213/67 151/214/13 152/215/136 
f 154/216/138 155/217/139 142/218/128 141/219/127 
f 154/220/138 141/195/127 19/23/19 156/221/13 
f 142/218/128 137/222/124 157/223/140 143/224/129 
f 149/225/134 158/226/141 159/227/142 150/228/135 
f 157/223/140 129/229/116 149/230/134 146/231/132 
f 146/203/132 145/202/131 143/197/129 157/232/140 
f 156/221/13 19/23/19 17/22/17 154/220/138 
f 15/18/15 114/233/104 138/234/125 155/235/139 
f 152/236/136 69/237/66 160/238/143 161/239/144 
f 161/239/144 160/238/143 162/240/145 126/174/113 
f 139/193/126 143/197/129 145/202/131 163/241/21 
f 164/242/146 165/243/147 147/244/133 150/245/135 
f 164/242/146 150/245/135 159/246/142 166/247/148 
f 125/173/112 161/239/144 126/174/113 
f 167/248/149 114/249/104 113/250/13 116/251/106 
f 69/252/66 72/253/69 166/254/148 162/255/145 
f 69/256/66 162/257/145 160/258/143 
f 162/259/145 166/260/148 159/227/142 158/226/141 
f 16/19/16 155/235/139 154/261/138 17/20/17 
f 16/19/16 15/18/15 155/235/139 
f 126/262/113 162/263/145 158/264/141 127/265/114 
f 158/264/141 149/230/134 129/229/116 127/265/114 
f 129/229/116 157/223/140 137/222/124 130/266/117 
f 137/222/124 142/218/128 155/217/139 138/267/125 
f 121/268/109 134/269/121 4/270/4 122/271/110 
f 134/272/121 133/273/120 1/1/1 4/4/4 
f 168/274/150 7/275/7 169/276/151 132/277/119 
f 132/278/119 131/199/118 144/198/130 168/279/150 
f 121/280/109 8/281/8 168/274/150 144/282/130 
f 144/198/130 135/185/122 134/184/121 121/283/109 
f 169/284/151 14/285/14 170/286/152 132/287/119 
f 170/288/152 171/289/153 25/181/24 132/180/119 
f 110/149/13 172/290/154 173/291/13 84/109/75 
f 109/148/101 174/292/155 172/290/154 110/149/13 
f 172/290/154 85/293/76 84/109/75 173/291/13 
f 175/294/13 136/295/123 176/296/156 177/297/157 
f 136/295/123 114/298/104 167/299/149 176/296/156 
f 178/300/13 153/212/137 152/215/136 161/301/144 
f 178/302/13 161/303/144 179/304/158 153/305/137 
f 116/306/106 177/307/157 176/308/156 167/309/149 
f 175/310/13 177/311/157 128/312/115 136/313/123 
f 179/304/158 70/314/67 153/305/137 
f 49/56/48 180/315/159 181/316/160 50/57/49 
f 182/317/161 183/318/162 184/319/163 185/320/164 
f 184/319/163 186/321/165 187/322/166 185/320/164 
f 188/323/167 105/142/97 189/324/168 183/318/162 
f 189/324/168 104/141/96 184/319/163 183/318/162 
f 190/325/169 74/326/71 191/327/170 180/315/159 
f 192/328/171 190/325/169 180/315/159 49/56/48 
f 193/329/172 74/326/71 190/325/169 61/330/60 
f 61/330/60 190/325/169 192/328/171 62/331/61 
f 182/317/161 188/323/167 183/318/162 
f 182/317/161 185/320/164 191/327/170 194/332/173 
f 188/323/167 94/123/85 105/142/97 
f 74/326/71 194/332/173 191/327/170 
f 100/333/91 102/334/94 93/335/84 96/336/87 
f 11/337/11 12/338/12 112/339/103 
f 112/151/103 195/340/174 11/341/11 
f 196/342/175 57/65/56 109/148/101 12/343/12 
f 112/344/103 12/345/12 109/346/101 
f 12/347/12 11/348/11 13/349/13 
f 197/350/176 174/292/155 109/148/101 57/65/56 
f 57/65/56 198/351/177 94/352/85 116/353/106 
f 197/350/176 57/65/56 115/354/105 117/355/107 
f 57/356/56 116/357/106 115/358/105 
f 73/92/70 28/91/27 41/359/40 8/360/8 
f 8/360/8 41/359/40 40/361/39 65/362/64 
f 199/363/13 32/364/31 31/365/30 200/366/178 
f 61/367/60 30/35/29 32/37/31 193/368/172 
f 193/368/172 200/369/178 75/370/72 74/371/71 
f 75/94/72 201/372/179 29/373/28 28/91/27 
f 202/374/180 99/375/90 203/376/181 
f 202/374/180 203/376/182 204/377/183 
f 205/378/184 41/379/40 203/376/181 99/375/90 
f 41/359/40 28/91/27 206/380/185 203/381/181 
f 101/382/186 207/383/187 28/91/27 
f 207/383/188 206/380/185 28/91/27 
f 207/383/187 101/382/186 208/384/189 
f 101/133/93 27/32/92 209/385/190 
f 210/386/191 211/387/192 202/374/180 
f 210/386/191 202/374/193 212/388/194 
f 209/389/190 213/390/195 208/391/189 101/392/186 
f 212/393/194 202/394/193 204/395/183 208/391/189 
f 201/396/179 200/366/178 31/365/30 29/397/28 
f 193/368/172 32/37/31 199/398/13 200/369/178 
f 75/370/72 200/369/178 201/399/179 
f 198/351/177 57/65/56 56/64/55 214/400/196 
f 215/401/197 198/402/177 214/403/196 97/404/88 
f 98/129/89 216/405/198 56/64/55 34/67/33 
f 198/351/177 215/406/197 95/127/86 94/352/85 
f 51/407/50 217/408/199 196/342/175 12/343/12 
f 53/409/52 35/40/34 34/39/33 60/410/59 
f 60/69/59 218/411/200 51/407/50 53/412/52 
f 219/413/201 196/414/175 217/415/199 59/416/58 
f 218/417/200 60/418/59 59/416/58 217/415/199 
f 214/403/196 56/419/55 216/420/198 97/404/88 
f 98/129/89 97/128/88 216/405/198 
f 95/127/86 215/406/197 97/128/88 
f 24/29/23 23/28/22 131/421/118 
f 119/162/102 220/422/202 221/423/13 91/164/82 
f 165/424/147 76/95/21 148/205/21 147/204/133 
f 163/241/21 82/101/21 140/194/21 139/193/126 
f 222/425/102 90/165/81 72/88/69 71/87/68 
f 117/355/107 223/426/203 174/292/155 197/350/176 
f 164/242/146 166/247/148 224/427/204 165/243/147 
f 140/194/21 85/428/76 20/24/20 19/23/19 
f 148/205/21 81/100/21 163/241/21 145/202/131 
f 165/424/147 77/96/73 76/95/21 
f 163/241/21 81/100/21 82/101/21 
f 222/425/102 120/163/102 90/165/81 
f 140/194/21 82/101/21 85/428/76 
f 148/205/21 76/95/21 81/100/21 
f 207/429/188 206/430/185 203/431/181 
f 203/381/181 206/380/185 207/383/188 
f 203/432/181 206/433/185 204/434/183 
f 225/435/205 6/82/6 67/81/21 226/436/21 
f 227/437/21 226/436/21 22/27/21 21/26/21 
f 21/26/21 26/31/25 228/438/21 227/437/21 
f 123/169/102 124/172/111 118/161/108 229/439/102 
f 195/340/174 171/440/153 14/441/14 11/341/11 
f 171/289/153 230/442/206 26/443/25 25/181/24 
f 226/436/21 67/81/21 22/27/21 
f 88/444/79 80/99/21 228/438/21 26/31/25 
f 91/164/82 221/423/13 220/422/202 225/445/205 
f 225/446/205 226/447/21 92/448/83 91/449/82 
f 46/51/45 38/43/37 37/42/36 99/130/90 
f 78/97/21 92/450/83 226/436/21 227/437/21 
f 227/437/21 228/438/21 79/98/21 78/97/21 
f 99/375/90 202/374/180 211/387/192 30/35/29 
f 27/32/26 30/35/29 211/387/192 
f 73/160/102 229/439/102 118/161/108 
f 79/98/21 228/438/21 80/99/21 
f 51/407/50 218/411/200 217/408/199 
f 27/32/26 211/387/207 213/451/195 
f 27/32/92 213/451/195 209/385/190 
f 196/342/175 219/452/201 58/66/57 57/65/56 
f 204/453/183 206/454/185 207/455/188 
f 207/383/188 208/384/189 204/456/183 
f 213/390/195 210/457/208 212/393/194 208/391/189 
f 213/451/195 211/387/207 210/386/208 
f 58/66/57 219/452/201 59/68/58 
f 111/150/102 87/108/78 195/340/174 112/151/103 
f 133/273/120 2/2/2 1/1/1 
f 231/458/209 37/459/36 108/460/100 232/461/210 
f 233/462/211 231/463/209 232/464/210 234/465/212 
f 107/466/99 235/467/213 232/464/210 108/468/100 
f 236/469/13 106/144/98 55/63/54 54/62/53 
f 236/470/13 54/471/53 107/466/99 106/472/98 
f 205/473/184 99/474/90 231/458/209 233/475/211 
f 237/476/214 205/477/184 233/478/211 238/479/215 
f 64/77/63 103/480/95 239/481/216 12/12/12 
f 239/481/216 235/482/213 52/483/51 12/12/12 
f 35/484/34 53/485/52 55/486/54 
f 99/474/90 37/459/36 231/458/209 
f 205/487/184 237/488/214 42/489/41 41/490/40 
f 37/491/36 36/145/35 108/147/100 
f 64/492/63 66/137/65 103/140/95 
f 234/465/212 232/464/210 235/467/213 239/493/216 
f 238/479/215 44/494/43 43/495/42 237/476/214 
f 235/467/213 107/466/99 54/471/53 52/496/51 
f 234/465/212 103/497/95 238/498/215 233/462/211 
f 42/489/41 237/488/214 43/499/42 
f 239/493/216 103/497/95 234/465/212 
f 103/140/95 44/139/43 238/500/215 
f 240/501/217 179/502/218 125/503/219 128/504/220 
f 240/501/217 128/504/220 177/505/221 
f 179/502/218 161/506/222 125/503/219 
f 8/7/8 65/507/64 9/8/9 
f 8/508/8 7/509/7 168/510/150 
f 14/16/14 169/511/151 7/17/7 
f 117/158/107 15/157/15 18/512/18 241/513/223 
f 118/161/108 242/514/224 220/422/202 119/162/102 
f 171/440/153 170/515/152 14/441/14 
f 122/516/110 4/4/4 3/3/3 
f 243/517/225 90/518/81 89/519/80 77/520/73 
f 90/521/81 243/522/225 244/523/226 245/524/227 
f 220/525/202 242/526/224 246/527/102 247/528/228 
f 90/529/81 245/530/227 248/531/229 72/532/69 
f 249/533/230 118/534/108 124/535/111 250/536/231 
f 118/534/108 249/533/230 251/537/102 242/538/224 
f 252/539/232 87/540/78 86/541/77 88/542/79 
f 87/543/78 252/544/232 253/545/233 254/546/234 
f 117/547/107 241/548/223 255/549/235 223/550/203 
f 256/551/236 171/552/153 195/553/174 254/554/234 
f 171/289/153 256/555/236 257/556/13 230/442/206 
f 195/553/174 87/557/78 254/554/234 
f 224/558/204 166/559/148 72/560/69 248/561/229 
f 224/562/204 248/563/229 258/564/102 259/565/237 
f 260/566/238 172/567/154 174/568/155 223/569/203 
f 172/570/154 260/571/238 261/572/13 262/573/239 
f 250/574/231 124/575/111 3/576/3 6/577/6 
f 263/578/13 248/563/229 245/524/227 244/523/226 
f 264/579/240 165/580/147 259/565/237 258/564/102 
f 248/581/229 263/582/13 258/583/102 
f 243/522/225 77/584/73 244/523/226 
f 224/585/204 259/586/237 165/587/147 
f 265/588/241 85/589/76 262/573/239 261/572/13 
f 266/590/102 260/571/238 223/550/203 255/549/235 
f 260/571/238 266/590/102 261/572/13 
f 241/591/223 18/592/18 20/593/20 255/594/235 
f 172/595/154 262/596/239 85/597/76 
f 267/598/242 26/443/25 230/442/206 257/556/13 
f 268/599/102 256/555/236 254/546/234 253/545/233 
f 256/555/236 268/599/102 257/556/13 
f 252/544/232 88/600/79 253/545/233 
f 269/601/243 249/602/230 250/603/231 6/604/6 
f 249/602/230 269/601/243 251/605/102 
f 242/526/224 251/606/102 246/527/102 
f 270/607/244 225/608/205 247/528/228 246/527/102 
f 220/609/202 247/610/228 225/611/205 
f 186/321/165 184/319/163 104/141/96 93/122/84 
f 187/322/166 181/316/160 180/315/159 191/327/170 
f 181/316/160 187/322/166 186/321/165 102/135/94 
f 49/56/48 48/55/47 63/612/62 192/328/171 
f 93/335/84 102/334/94 186/613/165 
f 102/334/94 50/614/49 181/615/160 
f 62/331/61 192/328/171 63/612/62 
f 105/142/97 104/141/96 189/324/168 
f 191/327/170 185/320/164 187/322/166 
# 217 polygons - 76 triangles

