# 3ds Max Wavefront OBJ Exporter v0.99 - (c)2007 guruware
# File Created: 19.03.2025 22:49:44

mtllib cofre.mtl

#
# object Cofre
#

v  3.7911 -0.1903 10.3984
v  7.5249 -0.5753 10.0134
v  7.5160 -0.1903 0.1005
v  3.7867 0.1947 0.4855
v  -3.6721 0.1947 0.4855
v  -7.4014 -0.1903 0.1005
v  -3.6759 -0.1903 10.3984
v  0.0573 -0.1903 10.5139
v  0.0573 0.3102 0.4855
v  -7.4090 -0.5753 10.0134
# 10 vertices

vn 0.1064 0.9936 0.0385
vn 0.1065 0.9936 0.0385
vn -0.0012 0.9992 0.0388
vn -0.1065 0.9936 0.0385
vn -0.0309 0.9983 0.0498
vn 0.0309 0.9983 0.0498
vn 0.0012 0.9992 0.0388
vn -0.1064 0.9936 0.0385
# 8 vertex normals

o Cofre
g Cofre
usemtl Body
s off
f 1//1 2//1 3//1 4//2 
f 5//3 6//4 7//3 8//3 
f 5//5 8//5 4//6 9//5 
f 8//7 1//7 4//7 
f 6//8 10//8 7//8 
# 3 polygons - 2 triangles

