# 3ds Max Wavefront OBJ Exporter v0.99 - (c)2007 guruware
# File Created: 24.03.2025 11:38:35

mtllib dadoT.mtl

#
# object Box001
#

v  0.7383 0.0000 -6.3389
v  0.7383 0.0000 -16.3389
v  10.7383 0.0000 -16.3389
v  10.7383 0.0000 -6.3389
v  0.7383 10.0000 -6.3389
v  10.7383 10.0000 -6.3389
v  10.7383 10.0000 -16.3389
v  0.7383 10.0000 -16.3389
# 8 vertices

vn -0.5774 -0.5774 0.5774
vn -0.5774 -0.5774 -0.5774
vn 0.5774 -0.5774 -0.5774
vn 0.5774 -0.5774 0.5774
vn -0.5774 0.5774 0.5774
vn 0.5774 0.5774 0.5774
vn 0.5774 0.5774 -0.5774
vn -0.5774 0.5774 -0.5774
# 8 vertex normals

vt 0.9946 0.3431 0.0000
vt 0.9946 0.6612 0.0000
vt 0.7545 0.6612 0.0000
vt 0.7545 0.3431 0.0000
vt 0.2561 0.3433 0.0000
vt 0.4943 0.3433 0.0000
vt 0.4943 0.6617 0.0000
vt 0.2561 0.6617 0.0000
vt 0.5030 0.0073 0.0000
vt 0.7448 0.0073 0.0000
vt 0.7448 0.3263 0.0000
vt 0.5030 0.3263 0.0000
vt 0.0089 0.3433 0.0000
vt 0.2443 0.3433 0.0000
vt 0.2443 0.6583 0.0000
vt 0.0089 0.6583 0.0000
vt 0.5118 0.6845 0.0000
vt 0.7488 0.6845 0.0000
vt 0.7488 0.9894 0.0000
vt 0.5118 0.9894 0.0000
vt 0.5079 0.3425 0.0000
vt 0.7455 0.3425 0.0000
vt 0.7455 0.6621 0.0000
vt 0.5079 0.6621 0.0000
# 24 texture coords

o Box001
g Box001
usemtl Material__28
s 2
f 1/1/1 2/2/2 3/3/3 4/4/4 
s 4
f 5/5/5 6/6/6 7/7/7 8/8/8 
s 8
f 1/9/1 4/10/4 6/11/6 5/12/5 
s 16
f 4/13/4 3/14/3 7/15/7 6/16/6 
s 32
f 3/17/3 2/18/2 8/19/8 7/20/7 
s 64
f 2/21/2 1/22/1 5/23/5 8/24/8 
# 6 polygons

#
# object Box002
#

v  0.7383 0.0000 -16.3389
v  10.7383 0.0000 -16.3389
v  10.7383 0.0000 -6.3389
v  0.7383 0.0000 -6.3389
v  10.7383 10.0000 -6.3389
v  10.7383 10.0000 -16.3389
v  0.7383 10.0000 -16.3389
v  0.7383 10.0000 -6.3389
# 8 vertices

vn -0.5774 -0.5774 -0.5774
vn 0.5774 -0.5774 -0.5774
vn 0.5774 -0.5774 0.5774
vn -0.5774 -0.5774 0.5774
vn 0.5774 0.5774 0.5774
vn 0.5774 0.5774 -0.5774
vn -0.5774 0.5774 -0.5774
vn -0.5774 0.5774 0.5774
# 8 vertex normals

vt 0.9946 0.6612 0.0000
vt 0.7545 0.6612 0.0000
vt 0.7545 0.3431 0.0000
vt 0.9946 0.3431 0.0000
vt 0.4943 0.3433 0.0000
vt 0.4943 0.6617 0.0000
vt 0.2561 0.6617 0.0000
vt 0.2561 0.3433 0.0000
vt 0.7448 0.0073 0.0000
vt 0.7448 0.3263 0.0000
vt 0.5030 0.3263 0.0000
vt 0.5030 0.0073 0.0000
vt 0.2443 0.3433 0.0000
vt 0.2443 0.6583 0.0000
vt 0.0089 0.6583 0.0000
vt 0.0089 0.3433 0.0000
vt 0.7488 0.6845 0.0000
vt 0.7488 0.9894 0.0000
vt 0.5118 0.9894 0.0000
vt 0.5118 0.6845 0.0000
vt 0.7455 0.3425 0.0000
vt 0.7455 0.6621 0.0000
vt 0.5079 0.6621 0.0000
vt 0.5079 0.3425 0.0000
# 24 texture coords

o Box002
g Box002
usemtl Material__28
s 2
f 9/25/9 10/26/10 11/27/11 12/28/12 
s 4
f 13/29/13 14/30/14 15/31/15 16/32/16 
s 8
f 11/33/11 13/34/13 16/35/16 12/36/12 
s 16
f 10/37/10 14/38/14 13/39/13 11/40/11 
s 32
f 9/41/9 15/42/15 14/43/14 10/44/10 
s 64
f 12/45/12 16/46/16 15/47/15 9/48/9 
# 6 polygons

