# 3ds Max Wavefront OBJ Exporter v0.99 - (c)2007 guruware
# File Created: 19.03.2025 23:11:20

mtllib Llanta2.mtl

#
# object Wheel2
#

v  -0.8629 -0.0424 -3.1638
v  -0.8629 0.5584 -3.1047
v  0.6769 -0.0424 -3.1638
v  0.6769 -0.6432 -3.1047
v  0.6769 -1.2210 -2.9294
v  -0.8629 -0.6432 -3.1047
v  0.6769 -1.7534 -2.6448
v  -0.8629 -1.2210 -2.9294
v  0.6769 -2.2201 -2.2618
v  -0.8629 -1.7534 -2.6448
v  0.6769 -2.6031 -1.7951
v  -0.8629 -2.2201 -2.2618
v  0.6769 -2.8877 -1.2627
v  -0.8629 -2.6031 -1.7951
v  0.6769 -3.0630 -0.6849
v  -0.8629 -2.8877 -1.2627
v  0.6769 -3.1222 -0.0841
v  -0.8629 -3.0630 -0.6849
v  0.6769 -3.0630 0.5167
v  -0.8629 -3.1222 -0.0841
v  0.6769 -2.8877 1.0945
v  -0.8629 -3.0630 0.5167
v  0.6769 -2.6031 1.6269
v  -0.8629 -2.8877 1.0945
v  0.6769 -2.2201 2.0936
v  -0.8629 -2.6031 1.6269
v  0.6769 -1.7534 2.4766
v  -0.8629 -2.2201 2.0936
v  0.6769 -1.2210 2.7612
v  -0.8629 -1.7534 2.4766
v  0.6769 -0.6432 2.9365
v  -0.8629 -1.2210 2.7612
v  0.6769 -0.0424 2.9956
v  -0.8629 -0.6432 2.9365
v  0.6769 0.5584 2.9365
v  -0.8629 -0.0424 2.9956
v  0.6769 1.1361 2.7612
v  -0.8629 0.5584 2.9365
v  0.6769 1.6686 2.4766
v  -0.8629 1.1361 2.7612
v  0.6769 2.1353 2.0936
v  -0.8629 1.6686 2.4766
v  0.6769 2.5183 1.6269
v  -0.8629 2.1353 2.0936
v  0.6769 2.8029 1.0945
v  -0.8629 2.5183 1.6269
v  0.6769 2.9781 0.5167
v  -0.8629 2.8029 1.0945
v  0.6769 3.0373 -0.0841
v  -0.8629 2.9781 0.5167
v  0.6769 2.9781 -0.6849
v  -0.8629 3.0373 -0.0841
v  0.6769 2.8029 -1.2627
v  -0.8629 2.9781 -0.6849
v  0.6769 2.5183 -1.7951
v  -0.8629 2.8029 -1.2627
v  0.6769 2.1353 -2.2618
v  -0.8629 2.5183 -1.7951
v  0.6769 1.6686 -2.6448
v  -0.8629 2.1353 -2.2618
v  0.6769 1.1361 -2.9294
v  -0.8629 1.6686 -2.6448
v  0.6769 0.5584 -3.1047
v  -0.8629 1.1361 -2.9294
v  1.0042 2.3902 1.5414
v  1.0042 2.6606 1.0355
v  1.0042 1.9849 0.7556
v  1.0042 2.8271 0.4867
v  -1.1902 -0.6132 -2.9536
v  -1.1902 -0.0424 -3.0098
v  -1.1902 -0.0424 -2.2784
v  -1.1902 0.5284 -2.9536
v  1.0042 -1.6679 2.3486
v  1.0042 -2.1112 1.9847
v  1.0042 -1.5940 1.4675
v  0.8944 -1.4389 1.3124
v  1.0042 -1.2615 1.7404
v  -1.1902 2.6606 -1.2037
v  -1.1902 2.3902 -1.7096
v  -1.1902 1.7821 -1.3032
v  -1.0804 1.5996 -1.1813
v  -1.1902 1.9849 -0.9238
v  -1.1902 -2.9120 -0.6549
v  -1.1902 -2.7455 -1.2037
v  -1.1902 -2.0697 -0.9238
v  -1.1902 -2.4751 -1.7096
v  1.0042 1.0772 -2.7871
v  1.0042 0.5284 -2.9536
v  1.0042 0.3857 -2.2362
v  1.0042 -0.0424 -3.0098
v  -1.1902 -0.0424 2.8417
v  -1.1902 -0.6132 2.7854
v  -1.1902 -0.4705 2.0681
v  -1.1902 -1.1621 2.6189
v  1.0042 -2.1112 -2.1529
v  1.0042 -2.4751 -1.7096
v  1.0042 -1.8669 -1.3032
v  1.0042 -2.7455 -1.2037
v  -1.1902 2.8271 -0.6549
v  -1.1902 2.8833 -0.0841
v  -1.1902 2.1519 -0.0841
v  -1.1902 2.8271 0.4867
v  1.0042 -1.1621 2.6189
v  1.0042 -0.8821 1.9432
v  1.0042 -0.6132 2.7854
v  1.0042 2.8833 -0.0841
v  -1.1902 -2.9682 -0.0841
v  -1.1902 0.5284 2.7854
v  1.0042 -2.9120 -0.6549
v  1.0042 -0.0424 2.8417
v  1.0042 2.8271 -0.6549
v  -1.1902 -2.9120 0.4867
v  -1.1902 1.0772 2.6189
v  1.0042 -2.9682 -0.0841
v  1.0042 0.5284 2.7854
v  1.0042 2.6606 -1.2037
v  -1.1902 -2.7455 1.0355
v  -1.1902 1.5830 2.3486
v  1.0042 -2.9120 0.4867
v  -1.1902 -1.1621 -2.7871
v  -1.1902 2.0264 -2.1529
v  1.0042 1.0772 2.6189
v  1.0042 -0.6132 -2.9536
v  1.0042 2.3902 -1.7096
v  -1.1902 -2.4751 1.5414
v  -1.1902 2.0264 1.9847
v  1.0042 -2.7455 1.0355
v  -1.1902 1.5830 -2.5168
v  1.0042 1.5830 2.3486
v  -1.1902 -1.6679 -2.5168
v  1.0042 2.0264 -2.1529
v  -1.1902 -2.1112 1.9847
v  1.0042 -1.1621 -2.7871
v  -1.1902 2.3902 1.5414
v  1.0042 -2.4751 1.5414
v  -1.1902 1.0772 -2.7871
v  1.0042 2.0264 1.9847
v  -1.1902 -2.1112 -2.1529
v  1.0042 1.5830 -2.5168
v  -1.1902 -1.6679 2.3486
v  1.0042 -1.6679 -2.5168
v  -1.1902 2.6606 1.0355
v  1.0042 0.3857 2.0681
v  1.0042 -0.0424 2.1102
v  0.8944 -0.0424 1.8908
v  0.8944 0.3429 1.8528
v  1.0042 0.7973 1.9432
v  -1.1902 -2.2367 -0.0841
v  -1.1902 -2.1946 -0.5122
v  -1.0804 -1.9794 -0.4694
v  -1.1902 -0.8821 1.9432
v  -1.0804 -0.7982 1.7405
v  -1.1902 -1.2615 1.7404
v  -1.1902 1.9849 0.7556
v  -1.1902 1.7821 1.1350
v  -1.0804 1.5996 1.0131
v  -1.1902 1.5092 1.4675
v  -1.1902 -0.8821 -2.1114
v  -1.1902 -0.4705 -2.2362
v  -1.0804 -0.4277 -2.0210
v  -1.1902 1.1767 -1.9086
v  -1.1902 1.5092 -1.6357
v  -1.0804 1.3540 -1.4805
v  -1.1902 -2.1946 0.3440
v  -1.1902 2.1097 0.3440
v  -1.1902 -1.2615 -1.9086
v  -1.1902 0.7973 -2.1114
v  -1.1902 -2.0697 0.7556
v  -1.1902 0.3857 2.0681
v  -1.1902 -0.0424 2.1102
v  -1.0804 -0.0424 1.8908
v  -1.1902 -1.5940 -1.6357
v  -1.1902 0.3857 -2.2362
v  -1.1902 -1.8669 1.1350
v  -1.1902 0.7973 1.9432
v  -1.1902 -1.8669 -1.3032
v  -1.1902 -1.5940 1.4675
v  -1.1902 1.1767 1.7404
v  -1.1902 2.1097 -0.5122
v  -1.0804 1.8945 -0.4694
v  -1.0804 -1.1396 -1.7261
v  -1.0804 -0.7982 -1.9086
v  1.0042 1.1767 1.7404
v  0.8944 1.0548 1.5580
v  1.0042 1.5092 1.4675
v  1.0042 2.1097 -0.5122
v  1.0042 1.9849 -0.9238
v  0.8944 1.7821 -0.8398
v  1.0042 1.7821 -1.3032
v  1.0042 -2.0697 -0.9238
v  0.8944 -1.8670 -0.8398
v  1.0042 -2.1946 -0.5122
v  1.0042 1.7821 1.1350
v  1.0042 -0.0424 -2.2784
v  0.8944 -0.0424 -2.0590
v  1.0042 -0.4705 -2.2362
v  1.0042 1.5092 -1.6357
v  1.0042 -2.2367 -0.0841
v  0.8944 -0.7982 1.7405
v  1.0042 -0.4705 2.0681
v  1.0042 -0.8821 -2.1114
v  1.0042 1.1767 -1.9086
v  1.0042 -2.1946 0.3440
v  0.8944 1.7821 0.6717
v  1.0042 2.1097 0.3440
v  1.0042 -1.2615 -1.9086
v  1.0042 0.7973 -2.1114
v  1.0042 -2.0697 0.7556
v  1.0042 2.1519 -0.0841
v  1.0042 -1.5940 -1.6357
v  1.0042 -1.8669 1.1350
v  -1.0804 0.7133 -1.9086
v  -1.0804 1.0548 -1.7261
v  -1.0804 -1.4389 -1.4805
v  0.8944 0.7133 1.7405
v  -1.0804 0.3429 -2.0210
v  -1.0804 -1.6845 -1.1813
v  -1.0804 -0.0424 -2.0590
v  -1.0804 -1.8670 -0.8398
v  0.8944 1.3540 1.3124
v  0.8944 1.5996 1.0131
v  -1.0804 -1.9794 0.3012
v  -1.0804 -2.0173 -0.0841
v  0.8944 1.8945 0.3012
v  -1.0804 -1.8670 0.6717
v  0.8944 1.9325 -0.0841
v  -1.0804 -1.6845 1.0131
v  0.8944 1.8945 -0.4694
v  -1.0804 -1.4389 1.3124
v  -1.0804 -1.1396 1.5580
v  0.8944 1.5996 -1.1813
v  0.8944 -0.4277 -2.0210
v  0.8944 1.3540 -1.4805
v  0.8944 -0.7982 -1.9086
v  0.8944 1.0548 -1.7261
v  0.8944 -1.1396 -1.7261
v  -1.0804 -0.4277 1.8528
v  0.8944 0.7133 -1.9086
v  0.8944 -1.4389 -1.4805
v  0.8944 0.3429 -2.0210
v  0.8944 -1.6845 -1.1813
v  -1.0804 0.7133 1.7405
v  -1.0804 0.3429 1.8528
v  -1.0804 1.0548 1.5580
v  0.8944 -1.9794 -0.4694
v  -1.0804 1.3540 1.3124
v  0.8944 -2.0173 -0.0841
v  0.8944 -1.9794 0.3012
v  0.8944 -1.8670 0.6717
v  -1.0804 1.8945 0.3012
v  -1.0804 1.7821 0.6717
v  0.8944 -1.6845 1.0131
v  -1.0804 1.9325 -0.0841
v  0.8944 -1.1396 1.5580
v  -1.0804 1.7821 -0.8398
v  0.8944 -0.4277 1.8528
# 256 vertices

vn -0.0000 -0.0980 -0.9952
vn 0.0000 0.0980 -0.9952
vn 0.0000 -0.0980 -0.9952
vn 0.0000 -0.2903 -0.9569
vn 0.0000 -0.4714 -0.8819
vn -0.0000 -0.4714 -0.8819
vn -0.0000 -0.6344 -0.7730
vn 0.0000 -0.6344 -0.7730
vn 0.0000 -0.7730 -0.6344
vn -0.0000 -0.7730 -0.6344
vn -0.0000 -0.8819 -0.4714
vn 0.0000 -0.8819 -0.4714
vn 0.0000 -0.9569 -0.2903
vn 0.0000 -0.9952 -0.0980
vn 0.0000 -0.9952 0.0980
vn 0.0000 -0.9569 0.2903
vn 0.0000 -0.8819 0.4714
vn -0.0000 -0.8819 0.4714
vn -0.0000 -0.7730 0.6344
vn 0.0000 -0.7730 0.6344
vn 0.0000 -0.6344 0.7730
vn -0.0000 -0.6344 0.7730
vn -0.0000 -0.4714 0.8819
vn 0.0000 -0.4714 0.8819
vn 0.0000 -0.2903 0.9569
vn 0.0000 -0.0980 0.9952
vn -0.0000 -0.0980 0.9952
vn 0.0000 0.0980 0.9952
vn 0.0000 0.2903 0.9569
vn 0.0000 0.4714 0.8819
vn 0.0000 0.6344 0.7730
vn 0.0000 0.7730 0.6344
vn 0.0000 0.8819 0.4714
vn 0.0000 0.9569 0.2903
vn 0.0000 0.9952 0.0980
vn 0.0000 0.9952 -0.0980
vn 0.0000 0.9569 -0.2903
vn 0.0000 0.8819 -0.4714
vn 0.0000 0.7730 -0.6344
vn 0.0000 0.6344 -0.7730
vn 0.0000 0.4714 -0.8819
vn 0.0000 0.2903 -0.9569
vn 0.4241 0.8666 0.2629
vn 0.4241 0.7987 0.4269
vn 1.0000 0.0000 -0.0000
vn -0.4241 0.0888 -0.9012
vn -0.4241 -0.0888 -0.9012
vn -1.0000 0.0000 -0.0000
vn 0.4241 -0.5745 0.7000
vn 1.0000 -0.0000 -0.0000
vn 0.8936 0.2848 -0.3470
vn -1.0000 -0.0000 0.0000
vn -0.4241 0.7987 -0.4269
vn -0.8936 -0.3959 0.2116
vn -0.4241 -0.7987 -0.4269
vn -0.4241 -0.8666 -0.2629
vn 0.4241 0.0888 -0.9012
vn 0.4241 0.2629 -0.8666
vn -0.4241 -0.2629 0.8666
vn -0.4241 -0.0888 0.9012
vn 0.4241 -0.7987 -0.4269
vn 0.4241 -0.7000 -0.5745
vn 1.0000 0.0000 0.0000
vn -0.4241 0.9012 0.0888
vn -0.4241 0.9012 -0.0888
vn -1.0000 -0.0000 -0.0000
vn 0.4241 -0.2629 0.8666
vn 0.4241 -0.4269 0.7987
vn 0.4241 0.9012 0.0888
vn -0.4241 -0.9012 -0.0888
vn -0.4241 0.0888 0.9012
vn 0.4241 -0.8666 -0.2629
vn -0.4241 0.8666 -0.2629
vn 0.4241 -0.0888 0.9012
vn 0.4241 0.9012 -0.0888
vn -0.4241 -0.9012 0.0888
vn -0.4241 0.2629 0.8666
vn 0.4241 -0.9012 -0.0888
vn 0.4241 0.0888 0.9012
vn 0.4241 0.8666 -0.2629
vn -0.4241 -0.8666 0.2629
vn -0.4241 0.4269 0.7987
vn 0.4241 -0.9012 0.0888
vn -0.4241 -0.2629 -0.8666
vn -0.4241 0.7000 -0.5745
vn 0.4241 0.2629 0.8666
vn 0.4241 -0.0888 -0.9012
vn 0.4241 0.7987 -0.4269
vn -0.4241 -0.7987 0.4269
vn -0.4241 0.5745 0.7000
vn 0.4241 -0.8666 0.2629
vn -0.4241 0.5745 -0.7000
vn 0.4241 0.4269 0.7987
vn -0.4241 -0.4269 -0.7987
vn 0.4241 0.7000 -0.5745
vn -0.4241 -0.7000 0.5745
vn 0.4241 -0.2629 -0.8666
vn -0.4241 0.7000 0.5745
vn 0.4241 -0.7987 0.4269
vn -0.4241 0.4269 -0.7987
vn 0.4241 0.5745 0.7000
vn -0.4241 -0.5745 -0.7000
vn 0.4241 0.5745 -0.7000
vn -0.4241 -0.5745 0.7000
vn 0.4241 -0.4269 -0.7987
vn -0.4241 0.7987 0.4269
vn 0.4241 -0.7000 0.5745
vn -0.4241 0.2629 -0.8666
vn 0.4241 0.7000 0.5745
vn -0.4241 -0.7000 -0.5745
vn 0.4241 0.4269 -0.7987
vn -0.4241 -0.4269 0.7987
vn 0.4241 -0.5745 -0.7000
vn -0.4241 0.8666 0.2629
vn 0.8936 -0.0440 -0.4468
vn 0.8936 -0.1303 -0.4296
vn -0.8936 0.4296 0.1303
vn -1.0000 0.0000 0.0000
vn -0.8936 0.2116 -0.3959
vn -0.8936 -0.3470 -0.2848
vn -0.8936 0.0440 0.4468
vn -0.8936 -0.3470 0.2848
vn -0.8936 0.0440 -0.4468
vn -0.8936 -0.4468 0.0440
vn -0.8936 0.1303 0.4296
vn -0.8936 0.2116 0.3959
vn 1.0000 -0.0000 0.0000
vn 0.8936 -0.2848 -0.3470
vn 0.8936 -0.3959 0.2116
vn 0.8936 0.4296 0.1303
vn 0.8936 0.0440 0.4468
vn 0.8936 0.1303 -0.4296
vn 0.8936 -0.4296 -0.1303
vn -0.8936 -0.2848 0.3470
vn -0.8936 -0.2116 0.3959
vn -0.8936 0.2848 0.3470
vn 0.8936 -0.2116 -0.3959
vn -0.8936 -0.1303 0.4296
vn -0.8936 0.3470 0.2848
vn -0.8936 -0.0440 0.4468
vn -0.8936 0.3959 0.2116
vn 0.8936 -0.3470 -0.2848
vn 0.8936 -0.3959 -0.2116
vn -0.8936 0.4468 0.0440
vn -0.8936 0.4468 -0.0440
vn 0.8936 -0.4468 -0.0440
vn -0.8936 0.4296 -0.1303
vn 0.8936 -0.4468 0.0440
vn -0.8936 0.3959 -0.2116
vn 0.8936 -0.4296 0.1303
vn -0.8936 0.3470 -0.2848
vn -0.8936 0.2848 -0.3470
vn 0.8936 -0.3470 0.2848
vn 0.8936 0.1303 0.4296
vn 0.8936 -0.2848 0.3470
vn 0.8936 0.2116 0.3959
vn 0.8936 -0.2116 0.3959
vn 0.8936 0.2848 0.3470
vn -0.8936 0.1303 -0.4296
vn 0.8936 -0.1303 0.4296
vn 0.8936 0.3470 0.2848
vn 0.8936 -0.0440 0.4468
vn 0.8936 0.3959 0.2116
vn -0.8936 -0.0440 -0.4468
vn -0.8936 -0.1303 -0.4296
vn -0.8936 -0.2116 -0.3959
vn 0.8936 0.4468 0.0440
vn -0.8936 -0.2848 -0.3470
vn 0.8936 0.4468 -0.0440
vn 0.8936 0.4296 -0.1303
vn 0.8936 0.3959 -0.2116
vn -0.8936 -0.3959 -0.2116
vn -0.8936 -0.4296 -0.1303
vn 0.8936 0.3470 -0.2848
vn -0.8936 -0.4468 -0.0440
vn 0.8936 0.2116 -0.3959
vn -0.8936 -0.4296 0.1303
vn 0.8936 0.0440 -0.4468
# 178 vertex normals

o Wheel2
g Wheel2
usemtl Tires
s off
f 1//1 2//2 3//1 4//1 
f 1//3 4//3 5//4 6//3 
f 6//4 5//4 7//5 8//4 
f 8//6 7//6 9//7 10//6 
f 10//8 9//8 11//9 12//8 
f 12//10 11//10 13//11 14//10 
f 14//12 13//12 15//13 16//12 
f 16//13 15//13 17//14 18//13 
f 18//14 17//14 19//15 20//14 
f 20//15 19//15 21//16 22//15 
f 22//16 21//16 23//17 24//16 
f 24//18 23//18 25//19 26//18 
f 26//20 25//20 27//21 28//20 
f 28//22 27//22 29//23 30//22 
f 30//24 29//24 31//25 32//24 
f 32//25 31//25 33//26 34//25 
f 34//27 33//27 35//28 36//27 
f 36//28 35//28 37//29 38//28 
f 38//29 37//29 39//30 40//29 
f 40//30 39//30 41//31 42//30 
f 42//31 41//31 43//32 44//31 
f 44//32 43//32 45//33 46//32 
f 46//33 45//33 47//34 48//33 
f 48//34 47//34 49//35 50//34 
f 50//35 49//35 51//36 52//35 
f 52//36 51//36 53//37 54//36 
f 54//37 53//37 55//38 56//37 
f 56//38 55//38 57//39 58//38 
f 58//39 57//39 59//40 60//39 
f 60//40 59//40 61//41 62//40 
f 62//41 61//41 63//42 64//41 
f 47//43 45//43 65//44 66//43 
f 47//43 66//43 67//45 68//43 
f 64//42 63//42 3//2 2//42 
f 2//46 1//46 69//47 70//46 
f 2//46 70//46 71//48 72//46 
f 73//45 27//49 74//45 75//45 
f 73//50 75//50 76//51 77//50 
f 78//52 56//53 79//52 80//52 
f 78//52 80//52 81//54 82//52 
f 14//55 16//55 83//56 84//55 
f 14//55 84//55 85//48 86//55 
f 3//57 63//57 87//58 88//57 
f 3//57 88//57 89//45 90//57 
f 32//59 34//59 91//60 92//59 
f 32//59 92//59 93//48 94//59 
f 13//61 11//61 95//62 96//61 
f 13//61 96//61 97//63 98//61 
f 50//64 52//64 99//65 100//64 
f 50//64 100//64 101//66 102//64 
f 31//67 29//67 73//68 103//67 
f 31//67 103//67 104//45 105//67 
f 49//69 47//69 68//69 106//69 
f 16//56 18//56 107//70 83//56 
f 34//60 36//60 108//71 91//60 
f 15//72 13//72 98//72 109//72 
f 52//65 54//65 78//73 99//65 
f 33//74 31//74 105//74 110//74 
f 51//75 49//75 106//75 111//75 
f 18//70 20//70 112//76 107//70 
f 36//71 38//71 113//77 108//71 
f 17//78 15//78 109//78 114//78 
f 54//73 56//73 78//73 
f 35//79 33//79 110//79 115//79 
f 53//80 51//80 111//80 116//80 
f 20//76 22//76 117//81 112//76 
f 38//77 40//77 118//82 113//77 
f 19//83 17//83 114//83 119//83 
f 1//47 6//47 120//84 69//47 
f 56//53 58//53 121//85 79//53 
f 37//86 35//86 115//86 122//86 
f 4//87 3//87 90//87 123//87 
f 55//88 53//88 116//88 124//88 
f 22//81 24//81 125//89 117//81 
f 40//82 42//82 126//90 118//82 
f 21//91 19//91 119//91 127//91 
f 58//85 60//85 128//92 121//85 
f 39//93 37//93 122//93 129//93 
f 6//84 8//84 130//94 120//84 
f 57//95 55//95 124//95 131//95 
f 24//89 26//89 132//96 125//89 
f 5//97 4//97 123//97 133//97 
f 42//90 44//90 134//98 126//90 
f 23//99 21//99 127//99 135//99 
f 60//92 62//92 136//100 128//92 
f 41//101 39//101 129//101 137//101 
f 8//94 10//94 138//102 130//94 
f 59//103 57//103 131//103 139//103 
f 26//96 28//96 140//104 132//96 
f 7//105 5//105 133//105 141//105 
f 44//98 46//98 142//106 134//98 
f 25//107 23//107 135//107 74//107 
f 62//100 64//100 72//108 136//100 
f 43//109 41//109 137//109 65//109 
f 10//102 12//102 86//110 138//102 
f 61//111 59//111 139//111 87//111 
f 28//104 30//104 94//112 140//104 
f 9//113 7//113 141//113 95//113 
f 46//106 48//106 102//114 142//106 
f 27//49 25//49 74//49 
f 64//108 2//108 72//108 
f 45//44 43//44 65//44 
f 12//110 14//110 86//110 
f 63//58 61//58 87//58 
f 30//112 32//112 94//112 
f 11//62 9//62 95//62 
f 48//114 50//114 102//114 
f 29//68 27//68 73//68 
f 143//115 115//45 144//115 145//115 
f 143//115 145//115 146//115 147//116 
f 84//48 83//48 148//48 149//48 
f 84//48 149//48 150//117 85//48 
f 140//118 94//118 93//48 151//118 
f 140//48 151//48 152//119 153//48 
f 126//66 134//66 154//66 155//66 
f 126//66 155//66 156//120 157//66 
f 70//48 69//48 158//48 159//48 
f 70//48 159//48 160//121 71//48 
f 79//52 121//52 161//118 162//52 
f 79//52 162//52 163//122 80//52 
f 83//48 107//48 164//48 148//48 
f 134//66 142//66 165//66 154//66 
f 69//48 120//48 166//48 158//48 
f 121//48 128//48 167//48 161//48 
f 107//48 112//48 168//48 164//48 
f 92//48 91//48 169//48 170//48 
f 92//48 170//48 171//123 93//48 
f 142//66 102//66 101//66 165//66 
f 120//118 130//118 172//48 166//118 
f 128//48 136//48 173//48 167//48 
f 112//48 117//48 174//48 168//48 
f 91//48 108//48 175//48 169//48 
f 130//48 138//48 176//48 172//48 
f 136//48 72//48 71//48 173//48 
f 117//48 125//48 177//48 174//48 
f 108//48 113//48 178//48 175//48 
f 100//52 99//52 82//52 179//52 
f 100//52 179//52 180//124 101//52 
f 138//48 86//48 85//48 176//48 
f 125//48 132//48 153//118 177//48 
f 113//48 118//48 157//48 178//48 
f 99//52 78//52 82//52 
f 132//48 140//48 153//48 
f 118//66 126//66 157//66 
f 159//125 158//125 181//126 182//125 
f 159//125 182//125 160//125 
f 137//50 129//50 147//50 183//50 
f 137//127 183//127 184//128 185//127 
f 124//45 116//45 186//45 187//45 
f 124//45 187//45 188//129 189//45 
f 109//63 98//63 97//63 190//63 
f 109//63 190//63 191//130 192//63 
f 103//45 73//45 77//45 104//45 
f 65//45 137//45 185//45 193//45 
f 123//45 90//45 89//45 194//45 
f 123//45 194//45 195//131 196//45 
f 131//45 124//45 189//45 197//45 
f 114//63 109//63 192//63 198//63 
f 105//45 104//45 199//132 200//45 
f 66//45 65//45 193//45 67//45 
f 133//45 123//45 196//45 201//45 
f 139//45 131//45 197//45 202//50 
f 119//45 114//45 198//45 203//45 
f 110//45 105//45 200//45 144//45 
f 68//45 67//45 204//133 205//45 
f 141//45 133//45 201//45 206//45 
f 87//127 139//127 202//127 207//45 
f 127//45 119//45 203//45 208//45 
f 115//45 110//45 144//45 
f 106//45 68//45 205//45 209//45 
f 95//45 141//45 206//45 210//127 
f 88//45 87//45 207//45 89//45 
f 135//45 127//45 208//45 211//45 
f 122//45 115//45 143//45 147//45 
f 111//45 106//45 209//45 186//45 
f 96//63 95//63 210//63 97//63 
f 74//45 135//45 211//45 75//45 
f 129//127 122//127 147//127 
f 116//45 111//45 186//45 
f 162//134 161//134 212//135 213//134 
f 162//134 213//134 163//134 
f 158//126 166//126 214//136 181//126 
f 147//116 146//116 215//116 183//137 
f 161//135 167//135 216//138 212//135 
f 166//136 172//136 217//139 214//136 
f 183//137 215//137 184//137 
f 167//138 173//138 218//140 216//138 
f 172//139 176//139 219//141 217//139 
f 185//128 184//128 220//128 193//142 
f 173//140 71//140 160//121 218//140 
f 176//141 85//141 150//117 219//141 
f 193//142 220//142 221//142 67//143 
f 67//143 221//143 204//143 
f 149//144 148//144 222//145 223//144 
f 149//144 223//144 150//144 
f 205//133 204//133 224//133 209//146 
f 148//145 164//145 225//147 222//145 
f 209//146 224//146 226//146 186//148 
f 164//147 168//147 227//149 225//147 
f 186//148 226//148 228//148 187//150 
f 168//149 174//149 229//151 227//149 
f 187//150 228//150 188//150 
f 174//151 177//151 230//152 229//151 
f 189//129 188//129 231//129 197//153 
f 196//131 195//131 232//131 201//154 
f 177//152 153//152 152//119 230//152 
f 197//153 231//153 233//153 202//155 
f 201//154 232//154 234//154 206//156 
f 202//155 233//155 235//155 207//157 
f 206//156 234//156 236//156 210//158 
f 151//159 93//159 171//123 237//159 
f 151//159 237//159 152//159 
f 207//157 235//157 238//157 89//160 
f 210//158 236//158 239//158 97//161 
f 89//160 238//160 240//160 194//162 
f 97//161 239//161 241//161 190//163 
f 170//164 169//164 242//165 243//164 
f 170//164 243//164 171//164 
f 194//162 240//162 195//162 
f 190//163 241//163 191//163 
f 169//165 175//165 244//166 242//165 
f 192//130 191//130 245//130 198//167 
f 175//166 178//166 246//168 244//166 
f 198//167 245//167 247//167 203//169 
f 178//168 157//168 156//120 246//168 
f 203//169 247//169 248//169 208//170 
f 208//170 248//170 249//170 211//171 
f 155//172 154//172 250//173 251//172 
f 155//172 251//172 156//172 
f 211//171 249//171 252//171 75//174 
f 154//173 165//173 253//175 250//173 
f 75//174 252//174 76//174 
f 165//175 101//175 180//124 253//175 
f 77//51 76//51 254//51 104//176 
f 104//176 254//176 199//176 
f 179//177 82//177 81//54 255//177 
f 179//177 255//177 180//177 
f 200//132 199//132 256//132 144//178 
f 144//178 256//178 145//178 
f 80//122 163//122 81//122 
usemtl Wheels
f 216//48 218//48 160//48 181//48 
f 160//48 182//48 181//48 
f 181//48 214//48 217//48 150//48 
f 217//48 219//48 150//48 
f 150//48 223//48 222//48 227//48 
f 222//48 225//48 227//48 
f 227//48 229//48 230//48 237//48 
f 230//48 152//48 237//48 
f 237//48 171//48 243//48 244//48 
f 243//48 242//48 244//48 
f 244//118 246//118 156//118 250//118 
f 156//48 251//48 250//48 
f 250//48 253//48 180//48 81//48 
f 180//48 255//48 81//48 
f 81//48 163//48 213//48 216//52 
f 213//48 212//48 216//48 
f 216//48 181//48 150//48 237//48 
f 150//48 227//48 237//48 
f 237//66 244//66 250//66 216//118 
f 250//48 81//48 216//48 
f 234//45 232//45 195//45 238//45 
f 195//45 240//45 238//45 
f 238//45 235//45 233//45 188//45 
f 233//45 231//45 188//45 
f 188//45 228//45 226//45 204//45 
f 226//45 224//45 204//45 
f 204//45 221//45 220//45 215//45 
f 220//45 184//45 215//45 
f 215//45 146//45 145//45 199//45 
f 145//45 256//45 199//45 
f 199//45 254//45 76//45 249//127 
f 76//45 252//45 249//45 
f 249//45 248//45 247//45 191//45 
f 247//45 245//45 191//45 
f 191//45 241//45 239//45 234//50 
f 239//63 236//63 234//63 
f 234//45 238//45 188//45 215//45 
f 188//45 204//45 215//45 
f 215//45 199//45 249//45 234//127 
f 249//50 191//50 234//50 
# 228 polygons - 52 triangles

