# 3ds Max Wavefront OBJ Exporter v0.99 - (c)2007 guruware
# File Created: 26.03.2025 21:59:12

mtllib LlantaT.mtl

#
# object Wheel1
#

v  -0.7308 -0.0265 -3.1298
v  -0.7308 0.5743 -3.0706
v  0.8091 -0.0265 -3.1298
v  0.8091 -0.6274 -3.0706
v  0.8091 -1.2051 -2.8953
v  -0.7308 -0.6274 -3.0706
v  0.8091 -1.7375 -2.6107
v  -0.7308 -1.2051 -2.8953
v  0.8091 -2.2042 -2.2277
v  -0.7308 -1.7375 -2.6107
v  0.8091 -2.5872 -1.7611
v  -0.7308 -2.2042 -2.2277
v  0.8091 -2.8718 -1.2286
v  -0.7308 -2.5872 -1.7611
v  0.8091 -3.0471 -0.6509
v  -0.7308 -2.8718 -1.2286
v  0.8091 -3.1063 -0.0500
v  -0.7308 -3.0471 -0.6509
v  0.8091 -3.0471 0.5508
v  -0.7308 -3.1063 -0.0500
v  0.8091 -2.8718 1.1285
v  -0.7308 -3.0471 0.5508
v  0.8091 -2.5872 1.6610
v  -0.7308 -2.8718 1.1285
v  0.8091 -2.2042 2.1277
v  -0.7308 -2.5872 1.6610
v  0.8091 -1.7375 2.5107
v  -0.7308 -2.2042 2.1277
v  0.8091 -1.2051 2.7953
v  -0.7308 -1.7375 2.5107
v  0.8091 -0.6274 2.9705
v  -0.7308 -1.2051 2.7953
v  0.8091 -0.0265 3.0297
v  -0.7308 -0.6274 2.9705
v  0.8091 0.5743 2.9705
v  -0.7308 -0.0265 3.0297
v  0.8091 1.1520 2.7953
v  -0.7308 0.5743 2.9705
v  0.8091 1.6845 2.5107
v  -0.7308 1.1520 2.7953
v  0.8091 2.1512 2.1277
v  -0.7308 1.6845 2.5107
v  0.8091 2.5342 1.6610
v  -0.7308 2.1512 2.1277
v  0.8091 2.8188 1.1285
v  -0.7308 2.5342 1.6610
v  0.8091 2.9940 0.5508
v  -0.7308 2.8188 1.1285
v  0.8091 3.0532 -0.0500
v  -0.7308 2.9940 0.5508
v  0.8091 2.9940 -0.6509
v  -0.7308 3.0532 -0.0500
v  0.8091 2.8188 -1.2286
v  -0.7308 2.9940 -0.6509
v  0.8091 2.5342 -1.7611
v  -0.7308 2.8188 -1.2286
v  0.8091 2.1512 -2.2277
v  -0.7308 2.5342 -1.7611
v  0.8091 1.6845 -2.6108
v  -0.7308 2.1512 -2.2277
v  0.8091 1.1520 -2.8953
v  -0.7308 1.6845 -2.6108
v  0.8091 0.5743 -3.0706
v  -0.7308 1.1520 -2.8953
v  1.1363 2.4061 1.5754
v  1.1363 2.6765 1.0696
v  1.1363 2.0007 0.7897
v  1.1363 2.8430 0.5207
v  -1.0580 -0.5973 -2.9196
v  -1.0580 -0.0265 -2.9758
v  -1.0580 -0.0265 -2.2444
v  -1.0580 0.5442 -2.9196
v  1.1363 -1.6520 2.3826
v  1.1363 -2.0954 2.0188
v  1.1363 -1.5782 1.5016
v  1.0266 -1.4230 1.3464
v  1.1363 -1.2456 1.7745
v  -1.0580 2.6765 -1.1697
v  -1.0580 2.4061 -1.6755
v  -1.0580 1.7980 -1.2691
v  -0.9483 1.6155 -1.1472
v  -1.0580 2.0007 -0.8898
v  -1.0580 -2.8961 -0.6208
v  -1.0580 -2.7296 -1.1697
v  -1.0580 -2.0538 -0.8898
v  -1.0580 -2.4592 -1.6755
v  1.1363 1.0931 -2.7531
v  1.1363 0.5442 -2.9196
v  1.1363 0.4015 -2.2022
v  1.1363 -0.0265 -2.9758
v  -1.0580 -0.0265 2.8757
v  -1.0580 -0.5973 2.8195
v  -1.0580 -0.4546 2.1021
v  -1.0580 -1.1462 2.6530
v  1.1363 -2.0954 -2.1189
v  1.1363 -2.4592 -1.6755
v  1.1363 -1.8510 -1.2691
v  1.1363 -2.7296 -1.1697
v  -1.0580 2.8430 -0.6208
v  -1.0580 2.8992 -0.0500
v  -1.0580 2.1678 -0.0500
v  -1.0580 2.8430 0.5207
v  1.1363 -1.1462 2.6530
v  1.1363 -0.8663 1.9772
v  1.1363 -0.5973 2.8195
v  1.1363 2.8992 -0.0500
v  -1.0580 -2.9523 -0.0500
v  -1.0580 0.5442 2.8195
v  1.1363 -2.8961 -0.6208
v  1.1363 -0.0265 2.8757
v  1.1363 2.8430 -0.6208
v  -1.0580 -2.8961 0.5207
v  -1.0580 1.0931 2.6530
v  1.1363 -2.9523 -0.0500
v  1.1363 0.5442 2.8195
v  1.1363 2.6765 -1.1697
v  -1.0580 -2.7296 1.0696
v  -1.0580 1.5989 2.3826
v  1.1363 -2.8961 0.5207
v  -1.0580 -1.1462 -2.7531
v  -1.0580 2.0423 -2.1189
v  1.1363 1.0931 2.6530
v  1.1363 -0.5973 -2.9196
v  1.1363 2.4061 -1.6755
v  -1.0580 -2.4592 1.5754
v  -1.0580 2.0423 2.0188
v  1.1363 -2.7296 1.0696
v  -1.0580 1.5989 -2.4827
v  1.1363 1.5989 2.3826
v  -1.0580 -1.6520 -2.4827
v  1.1363 2.0423 -2.1189
v  -1.0580 -2.0954 2.0188
v  1.1363 -1.1462 -2.7531
v  -1.0580 2.4061 1.5754
v  1.1363 -2.4592 1.5754
v  -1.0580 1.0931 -2.7531
v  1.1363 2.0423 2.0188
v  -1.0580 -2.0954 -2.1189
v  1.1363 1.5989 -2.4827
v  -1.0580 -1.6520 2.3826
v  1.1363 -1.6520 -2.4827
v  -1.0580 2.6765 1.0696
v  1.1363 0.4015 2.1021
v  1.1363 -0.0265 2.1443
v  1.0266 -0.0265 1.9248
v  1.0266 0.3587 1.8869
v  1.1363 0.8132 1.9772
v  -1.0580 -2.2209 -0.0500
v  -1.0580 -2.1787 -0.4781
v  -0.9483 -1.9635 -0.4353
v  -1.0580 -0.8663 1.9772
v  -0.9483 -0.7823 1.7745
v  -1.0580 -1.2456 1.7745
v  -1.0580 2.0007 0.7897
v  -1.0580 1.7980 1.1690
v  -0.9483 1.6155 1.0471
v  -1.0580 1.5251 1.5016
v  -1.0580 -0.8663 -2.0773
v  -1.0580 -0.4546 -2.2022
v  -0.9483 -0.4118 -1.9870
v  -1.0580 1.1926 -1.8745
v  -1.0580 1.5251 -1.6017
v  -0.9483 1.3699 -1.4465
v  -1.0580 -2.1787 0.3780
v  -1.0580 2.1256 0.3780
v  -1.0580 -1.2456 -1.8745
v  -1.0580 0.8132 -2.0773
v  -1.0580 -2.0538 0.7897
v  -1.0580 0.4016 2.1021
v  -1.0580 -0.0265 2.1443
v  -0.9483 -0.0265 1.9248
v  -1.0580 -1.5782 -1.6017
v  -1.0580 0.4015 -2.2022
v  -1.0580 -1.8510 1.1691
v  -1.0580 0.8132 1.9772
v  -1.0580 -1.8510 -1.2691
v  -1.0580 -1.5782 1.5016
v  -1.0580 1.1926 1.7745
v  -1.0580 2.1256 -0.4781
v  -0.9483 1.9104 -0.4353
v  -0.9483 -1.1237 -1.6921
v  -0.9483 -0.7823 -1.8746
v  1.1363 1.1926 1.7745
v  1.0266 1.0706 1.5920
v  1.1363 1.5251 1.5016
v  1.1363 2.1256 -0.4781
v  1.1363 2.0007 -0.8898
v  1.0266 1.7980 -0.8058
v  1.1363 1.7980 -1.2691
v  1.1363 -2.0538 -0.8898
v  1.0266 -1.8511 -0.8058
v  1.1363 -2.1787 -0.4781
v  1.1363 1.7980 1.1690
v  1.1363 -0.0265 -2.2444
v  1.0266 -0.0265 -2.0249
v  1.1363 -0.4546 -2.2022
v  1.1363 1.5251 -1.6017
v  1.1363 -2.2209 -0.0500
v  1.0266 -0.7823 1.7745
v  1.1363 -0.4546 2.1021
v  1.1363 -0.8663 -2.0773
v  1.1363 1.1926 -1.8745
v  1.1363 -2.1787 0.3780
v  1.0266 1.7980 0.7057
v  1.1363 2.1256 0.3780
v  1.1363 -1.2456 -1.8745
v  1.1363 0.8132 -2.0773
v  1.1363 -2.0538 0.7897
v  1.1363 2.1678 -0.0500
v  1.1363 -1.5782 -1.6017
v  1.1363 -1.8510 1.1691
v  -0.9483 0.7292 -1.8746
v  -0.9483 1.0706 -1.6921
v  -0.9483 -1.4230 -1.4465
v  1.0266 0.7292 1.7745
v  -0.9483 0.3587 -1.9870
v  -0.9483 -1.6686 -1.1472
v  -0.9483 -0.0265 -2.0249
v  -0.9483 -1.8511 -0.8058
v  1.0266 1.3699 1.3464
v  1.0266 1.6155 1.0471
v  -0.9483 -1.9635 0.3352
v  -0.9483 -2.0014 -0.0500
v  1.0266 1.9104 0.3352
v  -0.9483 -1.8511 0.7057
v  1.0266 1.9483 -0.0500
v  -0.9483 -1.6686 1.0471
v  1.0266 1.9104 -0.4353
v  -0.9483 -1.4230 1.3464
v  -0.9483 -1.1237 1.5920
v  1.0266 1.6155 -1.1472
v  1.0266 -0.4118 -1.9870
v  1.0266 1.3699 -1.4465
v  1.0266 -0.7823 -1.8746
v  1.0266 1.0706 -1.6921
v  1.0266 -1.1237 -1.6921
v  -0.9483 -0.4118 1.8869
v  1.0266 0.7292 -1.8746
v  1.0266 -1.4230 -1.4465
v  1.0266 0.3587 -1.9870
v  1.0266 -1.6686 -1.1472
v  -0.9483 0.7292 1.7745
v  -0.9483 0.3587 1.8869
v  -0.9483 1.0706 1.5920
v  1.0266 -1.9635 -0.4353
v  -0.9483 1.3699 1.3464
v  1.0266 -2.0014 -0.0500
v  1.0266 -1.9635 0.3352
v  1.0266 -1.8511 0.7057
v  -0.9483 1.9104 0.3352
v  -0.9483 1.7980 0.7057
v  1.0266 -1.6686 1.0471
v  -0.9483 1.9483 -0.0500
v  1.0266 -1.1237 1.5920
v  -0.9483 1.7980 -0.8058
v  1.0266 -0.4118 1.8869
# 256 vertices

vn -0.0000 -0.0980 -0.9952
vn 0.0000 0.0980 -0.9952
vn 0.0000 -0.0980 -0.9952
vn 0.0000 -0.2903 -0.9569
vn 0.0000 -0.4714 -0.8819
vn -0.0000 -0.4714 -0.8819
vn -0.0000 -0.6344 -0.7730
vn 0.0000 -0.6344 -0.7730
vn 0.0000 -0.7730 -0.6344
vn -0.0000 -0.7730 -0.6344
vn -0.0000 -0.8819 -0.4714
vn 0.0000 -0.8819 -0.4714
vn 0.0000 -0.9569 -0.2903
vn 0.0000 -0.9952 -0.0980
vn 0.0000 -0.9952 0.0980
vn 0.0000 -0.9569 0.2903
vn 0.0000 -0.8819 0.4714
vn -0.0000 -0.8819 0.4714
vn -0.0000 -0.7730 0.6344
vn 0.0000 -0.7730 0.6344
vn 0.0000 -0.6344 0.7730
vn -0.0000 -0.6344 0.7730
vn -0.0000 -0.4714 0.8819
vn 0.0000 -0.4714 0.8819
vn 0.0000 -0.2903 0.9569
vn 0.0000 -0.0980 0.9952
vn -0.0000 -0.0980 0.9952
vn 0.0000 0.0980 0.9952
vn 0.0000 0.2903 0.9569
vn 0.0000 0.4714 0.8819
vn 0.0000 0.6344 0.7730
vn 0.0000 0.7730 0.6344
vn 0.0000 0.8819 0.4714
vn 0.0000 0.9569 0.2903
vn 0.0000 0.9952 0.0980
vn 0.0000 0.9952 -0.0980
vn 0.0000 0.9569 -0.2903
vn 0.0000 0.8819 -0.4714
vn 0.0000 0.7730 -0.6344
vn 0.0000 0.6344 -0.7730
vn 0.0000 0.4714 -0.8819
vn 0.0000 0.2903 -0.9569
vn 0.4241 0.8666 0.2629
vn 0.4241 0.7987 0.4269
vn 1.0000 0.0000 -0.0000
vn -0.4241 0.0888 -0.9012
vn -0.4241 -0.0888 -0.9012
vn -1.0000 0.0000 -0.0000
vn 0.4241 -0.5745 0.7000
vn 1.0000 -0.0000 -0.0000
vn 0.8936 0.2848 -0.3470
vn -1.0000 -0.0000 0.0000
vn -0.4241 0.7987 -0.4269
vn -0.8936 -0.3959 0.2116
vn -0.4241 -0.7987 -0.4269
vn -0.4241 -0.8666 -0.2629
vn 0.4241 0.0888 -0.9012
vn 0.4241 0.2629 -0.8666
vn -0.4241 -0.2629 0.8666
vn -0.4241 -0.0888 0.9012
vn 0.4241 -0.7987 -0.4269
vn 0.4241 -0.7000 -0.5745
vn 1.0000 0.0000 0.0000
vn -0.4241 0.9012 0.0888
vn -0.4241 0.9012 -0.0888
vn -1.0000 -0.0000 -0.0000
vn 0.4241 -0.2629 0.8666
vn 0.4241 -0.4269 0.7987
vn 0.4241 0.9012 0.0888
vn -0.4241 -0.9012 -0.0888
vn -0.4241 0.0888 0.9012
vn 0.4241 -0.8666 -0.2629
vn -0.4241 0.8666 -0.2629
vn 0.4241 -0.0888 0.9012
vn 0.4241 0.9012 -0.0888
vn -0.4241 -0.9012 0.0888
vn -0.4241 0.2629 0.8666
vn 0.4241 -0.9012 -0.0888
vn 0.4241 0.0888 0.9012
vn 0.4241 0.8666 -0.2629
vn -0.4241 -0.8666 0.2629
vn -0.4241 0.4269 0.7987
vn 0.4241 -0.9012 0.0888
vn -0.4241 -0.2629 -0.8666
vn -0.4241 0.7000 -0.5745
vn 0.4241 0.2629 0.8666
vn 0.4241 -0.0888 -0.9012
vn 0.4241 0.7987 -0.4269
vn -0.4241 -0.7987 0.4269
vn -0.4241 0.5745 0.7000
vn 0.4241 -0.8666 0.2629
vn -0.4241 0.5745 -0.7000
vn 0.4241 0.4269 0.7987
vn -0.4241 -0.4269 -0.7987
vn 0.4241 0.7000 -0.5745
vn -0.4241 -0.7000 0.5745
vn 0.4241 -0.2629 -0.8666
vn -0.4241 0.7000 0.5745
vn 0.4241 -0.7987 0.4269
vn -0.4241 0.4269 -0.7987
vn 0.4241 0.5745 0.7000
vn -0.4241 -0.5745 -0.7000
vn 0.4241 0.5745 -0.7000
vn -0.4241 -0.5745 0.7000
vn 0.4241 -0.4269 -0.7987
vn -0.4241 0.7987 0.4269
vn 0.4241 -0.7000 0.5745
vn -0.4241 0.2629 -0.8666
vn 0.4241 0.7000 0.5745
vn -0.4241 -0.7000 -0.5745
vn 0.4241 0.4269 -0.7987
vn -0.4241 -0.4269 0.7987
vn 0.4241 -0.5745 -0.7000
vn -0.4241 0.8666 0.2629
vn 0.8936 -0.0440 -0.4468
vn 0.8936 -0.1303 -0.4296
vn -0.8936 0.4296 0.1303
vn -1.0000 0.0000 0.0000
vn -0.8936 0.2116 -0.3959
vn -0.8936 -0.3470 -0.2848
vn -0.8936 0.0440 0.4468
vn -0.8936 -0.3470 0.2848
vn -0.8936 0.0440 -0.4468
vn -0.8936 -0.4468 0.0440
vn -0.8936 0.1303 0.4296
vn -0.8936 0.2116 0.3959
vn 1.0000 -0.0000 0.0000
vn 0.8936 -0.2848 -0.3470
vn 0.8936 -0.3959 0.2116
vn 0.8936 0.4296 0.1303
vn 0.8936 0.0440 0.4468
vn 0.8936 0.1303 -0.4296
vn 0.8936 -0.4296 -0.1303
vn -0.8936 -0.2848 0.3470
vn -0.8936 -0.2116 0.3959
vn -0.8936 0.2848 0.3470
vn 0.8936 -0.2116 -0.3959
vn -0.8936 -0.1303 0.4296
vn -0.8936 0.3470 0.2848
vn -0.8936 -0.0440 0.4468
vn -0.8936 0.3959 0.2116
vn 0.8936 -0.3470 -0.2848
vn 0.8936 -0.3959 -0.2116
vn -0.8936 0.4468 0.0440
vn -0.8936 0.4468 -0.0440
vn 0.8936 -0.4468 -0.0440
vn -0.8936 0.4296 -0.1303
vn 0.8936 -0.4468 0.0440
vn -0.8936 0.3959 -0.2116
vn 0.8936 -0.4296 0.1303
vn -0.8936 0.3470 -0.2848
vn -0.8936 0.2848 -0.3470
vn 0.8936 -0.3470 0.2848
vn 0.8936 0.1303 0.4296
vn 0.8936 -0.2848 0.3470
vn 0.8936 0.2116 0.3959
vn 0.8936 -0.2116 0.3959
vn 0.8936 0.2848 0.3470
vn -0.8936 0.1303 -0.4296
vn 0.8936 -0.1303 0.4296
vn 0.8936 0.3470 0.2848
vn 0.8936 -0.0440 0.4468
vn 0.8936 0.3959 0.2116
vn -0.8936 -0.0440 -0.4468
vn -0.8936 -0.1303 -0.4296
vn -0.8936 -0.2116 -0.3959
vn 0.8936 0.4468 0.0440
vn -0.8936 -0.2848 -0.3470
vn 0.8936 0.4468 -0.0440
vn 0.8936 0.4296 -0.1303
vn 0.8936 0.3959 -0.2116
vn -0.8936 -0.3959 -0.2116
vn -0.8936 -0.4296 -0.1303
vn 0.8936 0.3470 -0.2848
vn -0.8936 -0.4468 -0.0440
vn 0.8936 0.2116 -0.3959
vn -0.8936 -0.4296 0.1303
vn 0.8936 0.0440 -0.4468
# 178 vertex normals

vt 0.6412 0.6667 0.0000
vt 0.6412 0.6143 0.0000
vt 0.7755 0.6667 0.0000
vt 0.7755 0.7191 0.0000
vt 0.7755 0.7694 0.0000
vt 0.6412 0.7191 0.0000
vt 0.7755 0.8159 0.0000
vt 0.6412 0.7694 0.0000
vt 0.7755 0.8566 0.0000
vt 0.6412 0.8159 0.0000
vt 0.7755 0.8900 0.0000
vt 0.6412 0.8566 0.0000
vt 0.7922 0.4150 0.0000
vt 0.7929 0.4809 0.0000
vt 0.6607 0.4473 0.0000
vt 0.6600 0.3895 0.0000
vt 0.7569 0.5825 0.0000
vt 0.6615 0.5132 0.0000
vt 0.7578 0.6569 0.0000
vt 0.6623 0.5847 0.0000
vt 0.7586 0.7312 0.0000
vt 0.6632 0.6591 0.0000
vt 0.7595 0.8028 0.0000
vt 0.6641 0.7335 0.0000
vt 0.7603 0.8687 0.0000
vt 0.6649 0.8050 0.0000
vt 0.7609 0.9265 0.0000
vt 0.6657 0.8709 0.0000
vt 0.7799 0.5692 0.0000
vt 0.7799 0.6099 0.0000
vt 0.6456 0.5692 0.0000
vt 0.6456 0.5358 0.0000
vt 0.7799 0.6564 0.0000
vt 0.6456 0.6099 0.0000
vt 0.7799 0.7067 0.0000
vt 0.6456 0.6564 0.0000
vt 0.7799 0.7591 0.0000
vt 0.6456 0.7067 0.0000
vt 0.7799 0.8115 0.0000
vt 0.6456 0.7591 0.0000
vt 0.7799 0.8619 0.0000
vt 0.6456 0.8115 0.0000
vt 0.7799 0.9083 0.0000
vt 0.6456 0.8619 0.0000
vt 0.7799 0.9490 0.0000
vt 0.6456 0.9083 0.0000
vt 0.7799 0.9824 0.0000
vt 0.6456 0.9490 0.0000
vt 0.7782 0.2509 0.0000
vt 0.7782 0.2973 0.0000
vt 0.6440 0.2509 0.0000
vt 0.6440 0.2102 0.0000
vt 0.7782 0.3477 0.0000
vt 0.6440 0.2973 0.0000
vt 0.7782 0.4001 0.0000
vt 0.6440 0.3477 0.0000
vt 0.7782 0.4525 0.0000
vt 0.6440 0.4001 0.0000
vt 0.7782 0.5029 0.0000
vt 0.6440 0.4525 0.0000
vt 0.7782 0.5493 0.0000
vt 0.6440 0.5029 0.0000
vt 0.7782 0.5900 0.0000
vt 0.6440 0.5493 0.0000
vt 0.7755 0.4767 0.0000
vt 0.7755 0.5174 0.0000
vt 0.6412 0.4767 0.0000
vt 0.6412 0.4433 0.0000
vt 0.7755 0.5639 0.0000
vt 0.6412 0.5174 0.0000
vt 0.7755 0.6143 0.0000
vt 0.6412 0.5639 0.0000
vt 0.8068 0.2584 0.0000
vt 0.8068 0.3025 0.0000
vt 0.1072 0.2126 0.0000
vt 0.1485 0.2862 0.0000
vt 0.0712 0.2656 0.0000
vt 0.0606 0.2529 0.0000
vt 0.6127 0.7164 0.0000
vt 0.6127 0.6667 0.0000
vt 0.4703 0.7677 0.0000
vt 0.4212 0.7016 0.0000
vt 0.5036 0.7092 0.0000
vt 0.5157 0.7201 0.0000
vt 0.5019 0.3264 0.0000
vt 0.5139 0.3169 0.0000
vt 0.5215 0.3954 0.0000
vt 0.4593 0.4233 0.0000
vt 0.4406 0.4317 0.0000
vt 0.4446 0.3715 0.0000
vt 0.5243 0.3520 0.0000
vt 0.5375 0.3440 0.0000
vt 0.5408 0.4229 0.0000
vt 0.4740 0.4431 0.0000
vt 0.4540 0.4491 0.0000
vt 0.4617 0.3899 0.0000
vt 0.6423 0.5889 0.0000
vt 0.6415 0.5210 0.0000
vt 0.1736 0.8573 0.0000
vt 0.1986 0.7689 0.0000
vt 0.2251 0.8777 0.0000
vt 0.2226 0.8974 0.0000
vt 0.8040 0.5690 0.0000
vt 0.8040 0.6169 0.0000
vt 0.1080 0.8025 0.0000
vt 0.1492 0.7286 0.0000
vt 0.1505 0.8439 0.0000
vt 0.1441 0.8616 0.0000
vt 0.6171 0.7591 0.0000
vt 0.6171 0.7094 0.0000
vt 0.0439 0.2979 0.0000
vt 0.1014 0.3493 0.0000
vt 0.0195 0.3642 0.0000
vt 0.0061 0.3569 0.0000
vt 0.8117 0.3702 0.0000
vt 0.8124 0.4251 0.0000
vt 0.3958 0.8431 0.0000
vt 0.3650 0.7590 0.0000
vt 0.4382 0.8014 0.0000
vt 0.4469 0.8169 0.0000
vt 0.6154 0.4499 0.0000
vt 0.6154 0.4001 0.0000
vt 0.4636 0.2301 0.0000
vt 0.4161 0.2985 0.0000
vt 0.4216 0.1838 0.0000
vt 0.4294 0.1670 0.0000
vt 0.8085 0.6174 0.0000
vt 0.8085 0.6615 0.0000
vt 0.4735 0.2643 0.0000
vt 0.4233 0.3250 0.0000
vt 0.4373 0.2115 0.0000
vt 0.4460 0.1960 0.0000
vt 0.8068 0.3503 0.0000
vt 0.8068 0.4001 0.0000
vt 0.6431 0.6596 0.0000
vt 0.6171 0.8089 0.0000
vt 0.8192 0.4758 0.0000
vt 0.8025 0.5127 0.0000
vt 0.8033 0.5806 0.0000
vt 0.7831 0.5774 0.0000
vt 0.6154 0.4977 0.0000
vt 0.8085 0.7094 0.0000
vt 0.8085 0.7591 0.0000
vt 0.8068 0.4499 0.0000
vt 0.6439 0.7302 0.0000
vt 0.6171 0.8568 0.0000
vt 0.8041 0.6513 0.0000
vt 0.7840 0.6518 0.0000
vt 0.8085 0.8089 0.0000
vt 0.8068 0.4977 0.0000
vt 0.6447 0.7982 0.0000
vt 0.6171 0.9009 0.0000
vt 0.8049 0.7220 0.0000
vt 0.7849 0.7262 0.0000
vt 0.6127 0.7643 0.0000
vt 0.6154 0.5805 0.0000
vt 0.6154 0.5419 0.0000
vt 0.8085 0.8568 0.0000
vt 0.8040 0.6667 0.0000
vt 0.8040 0.7164 0.0000
vt 0.8068 0.5419 0.0000
vt 0.6455 0.8608 0.0000
vt 0.6171 0.9396 0.0000
vt 0.8057 0.7899 0.0000
vt 0.7857 0.7977 0.0000
vt 0.8182 0.7580 0.0000
vt 0.8073 0.7501 0.0000
vt 0.8159 0.7379 0.0000
vt 0.8269 0.7424 0.0000
vt 0.8085 0.9009 0.0000
vt 0.6127 0.8084 0.0000
vt 0.7934 0.1013 0.0000
vt 0.7888 0.0746 0.0000
vt 0.8134 0.0604 0.0000
vt 0.8193 0.0864 0.0000
vt 0.6461 0.9157 0.0000
vt 0.8040 0.7643 0.0000
vt 0.8108 0.7496 0.0000
vt 0.8218 0.7533 0.0000
vt 0.8136 0.7688 0.0000
vt 0.8025 0.7686 0.0000
vt 0.8064 0.8525 0.0000
vt 0.7865 0.8636 0.0000
vt 0.6127 0.5690 0.0000
vt 0.6127 0.5249 0.0000
vt 0.6279 0.9124 0.0000
vt 0.6058 0.9079 0.0000
vt 0.6083 0.8370 0.0000
vt 0.6305 0.8378 0.0000
vt 0.6127 0.8471 0.0000
vt 0.8369 0.0431 0.0000
vt 0.8440 0.0682 0.0000
vt 0.8254 0.7853 0.0000
vt 0.8275 0.7444 0.0000
vt 0.8307 0.7767 0.0000
vt 0.8295 0.8181 0.0000
vt 0.8040 0.8084 0.0000
vt 0.6154 0.3025 0.0000
vt 0.6154 0.2584 0.0000
vt 0.6573 0.7979 0.0000
vt 0.6270 0.8068 0.0000
vt 0.6110 0.7594 0.0000
vt 0.6404 0.7481 0.0000
vt 0.6127 0.6169 0.0000
vt 0.6078 0.7672 0.0000
vt 0.6300 0.7643 0.0000
vt 0.6153 0.1432 0.0000
vt 0.6179 0.1486 0.0000
vt 0.6179 0.2054 0.0000
vt 0.6051 0.1914 0.0000
vt 0.8040 0.5249 0.0000
vt 0.6171 0.6615 0.0000
vt 0.6171 0.6174 0.0000
vt 0.6071 0.4012 0.0000
vt 0.6386 0.4030 0.0000
vt 0.6379 0.4530 0.0000
vt 0.6063 0.4539 0.0000
vt 0.6154 0.3503 0.0000
vt 0.6198 0.7005 0.0000
vt 0.6334 0.1896 0.0000
vt 0.6100 0.5055 0.0000
vt 0.3289 0.2330 0.0000
vt 0.3477 0.1416 0.0000
vt 0.3643 0.2543 0.0000
vt 0.3551 0.2796 0.0000
vt 0.3233 0.2604 0.0000
vt 0.2914 0.2221 0.0000
vt 0.1259 0.8233 0.0000
vt 0.1314 0.7087 0.0000
vt 0.1629 0.7434 0.0000
vt 0.1739 0.7194 0.0000
vt 0.0830 0.3991 0.0000
vt 0.0048 0.4359 0.0000
vt 0.1021 0.4095 0.0000
vt 0.0721 0.4528 0.0000
vt 0.3224 0.1295 0.0000
vt 0.3489 0.2383 0.0000
vt 0.3102 0.2230 0.0000
vt 0.2690 0.1235 0.0000
vt 0.3066 0.2511 0.0000
vt 0.2702 0.2185 0.0000
vt 0.4295 0.8159 0.0000
vt 0.3555 0.7650 0.0000
vt 0.3906 0.7378 0.0000
vt 0.3789 0.7144 0.0000
vt 0.5470 0.4969 0.0000
vt 0.4754 0.5543 0.0000
vt 0.4787 0.4986 0.0000
vt 0.4582 0.4991 0.0000
vt 0.0839 0.7770 0.0000
vt 0.1053 0.6661 0.0000
vt 0.3739 0.1499 0.0000
vt 0.3846 0.2638 0.0000
vt 0.3827 0.8522 0.0000
vt 0.3172 0.7822 0.0000
vt 0.5426 0.5712 0.0000
vt 0.4644 0.6081 0.0000
vt 0.0492 0.7203 0.0000
vt 0.0858 0.6173 0.0000
vt 0.0772 0.2395 0.0000
vt 0.1569 0.2693 0.0000
vt 0.1263 0.3055 0.0000
vt 0.1411 0.3253 0.0000
vt 0.3317 0.8751 0.0000
vt 0.2773 0.7887 0.0000
vt 0.5280 0.6429 0.0000
vt 0.4461 0.6578 0.0000
vt 0.0231 0.6552 0.0000
vt 0.0734 0.5641 0.0000
vt 0.1180 0.1912 0.0000
vt 0.1920 0.2421 0.0000
vt 0.2785 0.8837 0.0000
vt 0.2373 0.7841 0.0000
vt 0.0067 0.5842 0.0000
vt 0.0688 0.5086 0.0000
vt 0.1648 0.1549 0.0000
vt 0.2303 0.2249 0.0000
vt 0.4983 0.2869 0.0000
vt 0.4421 0.3411 0.0000
vt 0.4253 0.3573 0.0000
vt 0.0005 0.5102 0.0000
vt 0.2158 0.1321 0.0000
vt 0.3129 0.7543 0.0000
vt 0.3473 0.7389 0.0000
vt 0.2466 0.1274 0.0000
vt 0.2531 0.2223 0.0000
vt 0.1966 0.1421 0.0000
vt 0.2551 0.2507 0.0000
vt 0.2156 0.2333 0.0000
vt 0.0137 0.4704 0.0000
vt 0.0858 0.4245 0.0000
vt 0.0784 0.4796 0.0000
vt 0.0138 0.5452 0.0000
vt 0.0978 0.4823 0.0000
vt 0.0785 0.5356 0.0000
vt 0.3968 0.7278 0.0000
vt 0.4742 0.7484 0.0000
vt 0.3844 0.7057 0.0000
vt 0.4238 0.6880 0.0000
vt 0.1803 0.2549 0.0000
vt 0.1495 0.1709 0.0000
vt 0.1811 0.7596 0.0000
vt 0.1977 0.8723 0.0000
vt 0.1902 0.7344 0.0000
vt 0.2164 0.7810 0.0000
vt 0.0860 0.5906 0.0000
vt 0.0238 0.6185 0.0000
vt 0.4450 0.6413 0.0000
vt 0.5024 0.6861 0.0000
vt 0.4082 0.3432 0.0000
vt 0.3961 0.2854 0.0000
vt 0.2540 0.7918 0.0000
vt 0.2477 0.8868 0.0000
vt 0.1008 0.6424 0.0000
vt 0.0435 0.6876 0.0000
vt 0.4595 0.5895 0.0000
vt 0.5218 0.6169 0.0000
vt 0.3948 0.1701 0.0000
vt 0.1610 0.3083 0.0000
vt 0.1215 0.3259 0.0000
vt 0.2922 0.7917 0.0000
vt 0.2987 0.8866 0.0000
vt 0.1221 0.6890 0.0000
vt 0.0719 0.7497 0.0000
vt 0.4669 0.5344 0.0000
vt 0.5317 0.5435 0.0000
vt 0.1004 0.3726 0.0000
vt 0.0429 0.3278 0.0000
vt 0.3297 0.7806 0.0000
vt 0.3488 0.8719 0.0000
vt 0.4668 0.4783 0.0000
vt 0.5316 0.4688 0.0000
vt 0.2976 0.1272 0.0000
vt 0.0235 0.3970 0.0000
vt 0.4454 0.5976 0.0000
vt 0.4553 0.5492 0.0000
vt 0.2770 0.7601 0.0000
vt 0.2895 0.2506 0.0000
vt 0.4289 0.6424 0.0000
vt 0.2409 0.7561 0.0000
vt 0.4064 0.6818 0.0000
vt 0.2061 0.7423 0.0000
vt 0.2213 0.2607 0.0000
vt 0.1895 0.2801 0.0000
vt 0.1222 0.6498 0.0000
vt 0.1456 0.6882 0.0000
vt 0.1367 0.3440 0.0000
vt 0.1046 0.6059 0.0000
vt 0.1176 0.3861 0.0000
vt 0.0935 0.5580 0.0000
vt 0.1045 0.4328 0.0000
vt 0.0893 0.5081 0.0000
vt 0.0922 0.4579 0.0000
vt 0.0979 0.5328 0.0000
vt 0.2221 0.7536 0.0000
vt 0.1047 0.5823 0.0000
vt 0.2558 0.7633 0.0000
vt 0.1180 0.6289 0.0000
vt 0.2903 0.7632 0.0000
vt 0.1186 0.3647 0.0000
vt 0.1371 0.6708 0.0000
vt 0.3240 0.7533 0.0000
vt 0.1616 0.7064 0.0000
vt 0.3558 0.7338 0.0000
vt 0.2002 0.2682 0.0000
vt 0.1686 0.2927 0.0000
vt 0.2346 0.2528 0.0000
vt 0.4087 0.6699 0.0000
vt 0.2705 0.2470 0.0000
vt 0.4278 0.6279 0.0000
vt 0.4409 0.5812 0.0000
vt 0.4475 0.5317 0.0000
vt 0.3735 0.2878 0.0000
vt 0.3413 0.2648 0.0000
vt 0.4474 0.4812 0.0000
vt 0.4019 0.3190 0.0000
vt 0.4274 0.3851 0.0000
vt 0.4429 0.4013 0.0000
vt 0.3838 0.3075 0.0000
# 379 texture coords

o Wheel1
g Wheel1
usemtl 03___Default
s off
f 1/1/1 2/2/2 3/3/1 4/4/1 
f 4/4/3 5/5/4 6/6/3 1/1/3 
f 5/5/4 7/7/5 8/8/4 6/6/4 
f 7/7/6 9/9/7 10/10/6 8/8/6 
f 9/9/8 11/11/9 12/12/8 10/10/8 
f 11/13/10 13/14/11 14/15/10 12/16/10 
f 13/14/12 15/17/13 16/18/12 14/15/12 
f 15/17/13 17/19/14 18/20/13 16/18/13 
f 17/19/14 19/21/15 20/22/14 18/20/14 
f 19/21/15 21/23/16 22/24/15 20/22/15 
f 21/23/16 23/25/17 24/26/16 22/24/16 
f 23/25/18 25/27/19 26/28/18 24/26/18 
f 25/29/20 27/30/21 28/31/20 26/32/20 
f 27/30/22 29/33/23 30/34/22 28/31/22 
f 29/33/24 31/35/25 32/36/24 30/34/24 
f 31/35/25 33/37/26 34/38/25 32/36/25 
f 33/37/27 35/39/28 36/40/27 34/38/27 
f 35/39/28 37/41/29 38/42/28 36/40/28 
f 37/41/29 39/43/30 40/44/29 38/42/29 
f 39/43/30 41/45/31 42/46/30 40/44/30 
f 41/45/31 43/47/32 44/48/31 42/46/31 
f 43/49/32 45/50/33 46/51/32 44/52/32 
f 45/50/33 47/53/34 48/54/33 46/51/33 
f 47/53/34 49/55/35 50/56/34 48/54/34 
f 49/55/35 51/57/36 52/58/35 50/56/35 
f 51/57/36 53/59/37 54/60/36 52/58/36 
f 53/59/37 55/61/38 56/62/37 54/60/37 
f 55/61/38 57/63/39 58/64/38 56/62/38 
f 57/65/39 59/66/40 60/67/39 58/68/39 
f 59/66/40 61/69/41 62/70/40 60/67/40 
f 61/69/41 63/71/42 64/72/41 62/70/41 
f 45/50/43 65/73/44 66/74/43 47/53/43 
f 66/75/43 67/76/45 68/77/43 47/78/43 
f 63/71/42 3/3/2 2/2/42 64/72/42 
f 1/1/46 69/79/47 70/80/46 2/2/46 
f 70/81/46 71/82/48 72/83/46 2/84/46 
f 73/85/45 27/86/49 74/87/45 75/88/45 
f 75/88/50 76/89/51 77/90/50 73/85/50 
f 78/91/52 56/92/53 79/93/52 80/94/52 
f 80/94/52 81/95/54 82/96/52 78/91/52 
f 16/18/55 83/97/56 84/98/55 14/15/55 
f 84/99/55 85/100/48 86/101/55 14/102/55 
f 63/71/57 87/103/58 88/104/57 3/3/57 
f 88/105/57 89/106/45 90/107/57 3/108/57 
f 34/38/59 91/109/60 92/110/59 32/36/59 
f 92/111/59 93/112/48 94/113/59 32/114/59 
f 11/13/61 95/115/62 96/116/61 13/14/61 
f 96/117/61 97/118/63 98/119/61 13/120/61 
f 52/58/64 99/121/65 100/122/64 50/56/64 
f 100/123/64 101/124/66 102/125/64 50/126/64 
f 29/33/67 73/127/68 103/128/67 31/35/67 
f 103/129/67 104/130/45 105/131/67 31/132/67 
f 47/53/69 68/133/69 106/134/69 49/55/69 
f 18/20/56 107/135/70 83/97/56 16/18/56 
f 36/40/60 108/136/71 91/109/60 34/38/60 
f 13/137/72 98/138/72 109/139/72 15/140/72 
f 54/60/65 78/141/73 99/121/65 52/58/65 
f 31/35/74 105/142/74 110/143/74 33/37/74 
f 49/55/75 106/134/75 111/144/75 51/57/75 
f 20/22/70 112/145/76 107/135/70 18/20/70 
f 38/42/71 113/146/77 108/136/71 36/40/71 
f 15/140/78 109/139/78 114/147/78 17/148/78 
f 54/60/73 56/62/73 78/141/73 
f 33/37/79 110/143/79 115/149/79 35/39/79 
f 51/57/80 111/144/80 116/150/80 53/59/80 
f 22/24/76 117/151/81 112/145/76 20/22/76 
f 40/44/77 118/152/82 113/146/77 38/42/77 
f 17/148/83 114/147/83 119/153/83 19/154/83 
f 6/6/47 120/155/84 69/79/47 1/1/47 
f 58/64/53 121/156/85 79/157/53 56/62/53 
f 35/39/86 115/149/86 122/158/86 37/41/86 
f 3/3/87 90/159/87 123/160/87 4/4/87 
f 53/59/88 116/150/88 124/161/88 55/61/88 
f 24/26/81 125/162/89 117/151/81 22/24/81 
f 42/46/82 126/163/90 118/152/82 40/44/82 
f 19/154/91 119/153/91 127/164/91 21/165/91 
f 60/166/85 128/167/92 121/168/85 58/169/85 
f 37/41/93 122/158/93 129/170/93 39/43/93 
f 8/8/84 130/171/94 120/155/84 6/6/84 
f 55/172/95 124/173/95 131/174/95 57/175/95 
f 26/28/89 132/176/96 125/162/89 24/26/89 
f 4/4/97 123/160/97 133/177/97 5/5/97 
f 44/178/90 134/179/98 126/180/90 42/181/90 
f 21/165/99 127/164/99 135/182/99 23/183/99 
f 62/70/92 136/184/100 128/185/92 60/67/92 
f 39/186/101 129/187/101 137/188/101 41/189/101 
f 10/10/94 138/190/102 130/171/94 8/8/94 
f 57/175/103 131/174/103 139/191/103 59/192/103 
f 28/193/96 140/194/104 132/195/96 26/196/96 
f 5/5/105 133/177/105 141/197/105 7/7/105 
f 46/51/98 142/198/106 134/199/98 44/52/98 
f 23/200/107 135/201/107 74/202/107 25/203/107 
f 64/72/100 72/204/108 136/184/100 62/70/100 
f 41/189/109 137/188/109 65/205/109 43/206/109 
f 12/207/102 86/208/110 138/209/102 10/210/102 
f 59/66/111 139/211/111 87/103/111 61/69/111 
f 30/34/104 94/212/112 140/213/104 28/31/104 
f 7/214/113 141/215/113 95/216/113 9/217/113 
f 48/54/106 102/218/114 142/198/106 46/51/106 
f 27/219/49 25/203/49 74/202/49 
f 64/72/108 2/2/108 72/204/108 
f 45/50/44 43/49/44 65/73/44 
f 12/207/110 14/220/110 86/208/110 
f 63/71/58 61/69/58 87/103/58 
f 30/34/112 32/36/112 94/212/112 
f 11/221/62 9/217/62 95/216/62 
f 48/54/114 50/56/114 102/218/114 
f 29/33/68 27/30/68 73/127/68 
f 143/222/115 115/223/45 144/224/115 145/225/115 
f 143/222/115 145/225/115 146/226/115 147/227/116 
f 83/228/48 148/229/48 149/230/48 84/99/48 
f 149/230/48 150/231/117 85/100/48 84/99/48 
f 94/113/118 93/112/48 151/232/118 140/233/118 
f 151/232/48 152/234/119 153/235/48 140/233/48 
f 134/236/66 154/237/66 155/238/66 126/239/66 
f 155/238/66 156/240/120 157/241/66 126/239/66 
f 69/242/48 158/243/48 159/244/48 70/81/48 
f 159/244/48 160/245/121 71/82/48 70/81/48 
f 121/246/52 161/247/118 162/248/52 79/93/52 
f 162/248/52 163/249/122 80/94/52 79/93/52 
f 107/250/48 164/251/48 148/229/48 83/228/48 
f 142/252/66 165/253/66 154/237/66 134/236/66 
f 120/254/48 166/255/48 158/243/48 69/242/48 
f 128/256/48 167/257/48 161/247/48 121/246/48 
f 112/258/48 168/259/48 164/251/48 107/250/48 
f 91/260/48 169/261/48 170/262/48 92/111/48 
f 170/262/48 171/263/123 93/112/48 92/111/48 
f 102/125/66 101/124/66 165/253/66 142/252/66 
f 130/264/118 172/265/48 166/255/118 120/254/118 
f 136/266/48 173/267/48 167/257/48 128/256/48 
f 117/268/48 174/269/48 168/259/48 112/258/48 
f 108/270/48 175/271/48 169/261/48 91/260/48 
f 138/272/48 176/273/48 172/265/48 130/264/48 
f 72/83/48 71/82/48 173/267/48 136/266/48 
f 125/274/48 177/275/48 174/269/48 117/268/48 
f 113/276/48 178/277/48 175/271/48 108/270/48 
f 99/278/52 82/96/52 179/279/52 100/123/52 
f 179/279/52 180/280/124 101/124/52 100/123/52 
f 86/101/48 85/100/48 176/273/48 138/272/48 
f 132/281/48 153/235/118 177/275/48 125/274/48 
f 118/282/48 157/241/48 178/277/48 113/276/48 
f 99/278/52 78/91/52 82/96/52 
f 132/281/48 140/233/48 153/235/48 
f 118/282/66 126/239/66 157/241/66 
f 158/243/125 181/283/126 182/284/125 159/244/125 
f 159/244/125 182/284/125 160/245/125 
f 129/285/50 147/227/50 183/286/50 137/287/50 
f 183/286/127 184/288/128 185/289/127 137/287/127 
f 116/290/45 186/291/45 187/292/45 124/293/45 
f 187/292/45 188/294/129 189/295/45 124/293/45 
f 98/119/63 97/118/63 190/296/63 109/297/63 
f 190/296/63 191/298/130 192/299/63 109/297/63 
f 73/85/45 77/90/45 104/130/45 103/129/45 
f 137/287/45 185/289/45 193/300/45 65/301/45 
f 90/107/45 89/106/45 194/302/45 123/303/45 
f 194/302/45 195/304/131 196/305/45 123/303/45 
f 124/293/45 189/295/45 197/306/45 131/307/45 
f 109/297/63 192/299/63 198/308/63 114/309/63 
f 104/130/45 199/310/132 200/311/45 105/131/45 
f 65/301/45 193/300/45 67/76/45 66/75/45 
f 123/303/45 196/305/45 201/312/45 133/313/45 
f 131/307/45 197/306/45 202/314/50 139/315/45 
f 114/309/45 198/308/45 203/316/45 119/317/45 
f 105/131/45 200/311/45 144/224/45 110/318/45 
f 67/76/45 204/319/133 205/320/45 68/77/45 
f 133/313/45 201/312/45 206/321/45 141/322/45 
f 139/315/127 202/314/127 207/323/45 87/324/127 
f 119/317/45 203/316/45 208/325/45 127/326/45 
f 115/223/45 110/318/45 144/224/45 
f 68/77/45 205/320/45 209/327/45 106/328/45 
f 141/322/45 206/321/45 210/329/127 95/330/45 
f 87/324/45 207/323/45 89/106/45 88/105/45 
f 127/326/45 208/325/45 211/331/45 135/332/45 
f 115/223/45 143/222/45 147/227/45 122/333/45 
f 106/328/45 209/327/45 186/291/45 111/334/45 
f 95/330/63 210/329/63 97/118/63 96/117/63 
f 135/332/45 211/331/45 75/88/45 74/87/45 
f 129/285/127 122/333/127 147/227/127 
f 116/290/45 111/334/45 186/291/45 
f 161/247/134 212/335/135 213/336/134 162/248/134 
f 162/248/134 213/336/134 163/249/134 
f 166/255/126 214/337/136 181/283/126 158/243/126 
f 147/227/116 146/226/116 215/338/116 183/286/137 
f 167/257/135 216/339/138 212/335/135 161/247/135 
f 172/265/136 217/340/139 214/337/136 166/255/136 
f 183/286/137 215/338/137 184/288/137 
f 173/267/138 218/341/140 216/339/138 167/257/138 
f 176/273/139 219/342/141 217/340/139 172/265/139 
f 185/289/128 184/288/128 220/343/128 193/300/142 
f 71/82/140 160/245/121 218/341/140 173/267/140 
f 85/100/141 150/231/117 219/342/141 176/273/141 
f 193/300/142 220/343/142 221/344/142 67/76/143 
f 67/76/143 221/344/143 204/319/143 
f 148/229/144 222/345/145 223/346/144 149/230/144 
f 149/230/144 223/346/144 150/231/144 
f 205/320/133 204/319/133 224/347/133 209/327/146 
f 164/251/145 225/348/147 222/345/145 148/229/145 
f 209/327/146 224/347/146 226/349/146 186/291/148 
f 168/259/147 227/350/149 225/348/147 164/251/147 
f 186/291/148 226/349/148 228/351/148 187/292/150 
f 174/269/149 229/352/151 227/350/149 168/259/149 
f 187/292/150 228/351/150 188/294/150 
f 177/275/151 230/353/152 229/352/151 174/269/151 
f 189/295/129 188/294/129 231/354/129 197/306/153 
f 196/305/131 195/304/131 232/355/131 201/312/154 
f 153/235/152 152/234/119 230/353/152 177/275/152 
f 197/306/153 231/354/153 233/356/153 202/314/155 
f 201/312/154 232/355/154 234/357/154 206/321/156 
f 202/314/155 233/356/155 235/358/155 207/323/157 
f 206/321/156 234/357/156 236/359/156 210/329/158 
f 93/112/159 171/263/123 237/360/159 151/232/159 
f 151/232/159 237/360/159 152/234/159 
f 207/323/157 235/358/157 238/361/157 89/106/160 
f 210/329/158 236/359/158 239/362/158 97/118/161 
f 89/106/160 238/361/160 240/363/160 194/302/162 
f 97/118/161 239/362/161 241/364/161 190/296/163 
f 169/261/164 242/365/165 243/366/164 170/262/164 
f 170/262/164 243/366/164 171/263/164 
f 194/302/162 240/363/162 195/304/162 
f 190/296/163 241/364/163 191/298/163 
f 175/271/165 244/367/166 242/365/165 169/261/165 
f 192/299/130 191/298/130 245/368/130 198/308/167 
f 178/277/166 246/369/168 244/367/166 175/271/166 
f 198/308/167 245/368/167 247/370/167 203/316/169 
f 157/241/168 156/240/120 246/369/168 178/277/168 
f 203/316/169 247/370/169 248/371/169 208/325/170 
f 208/325/170 248/371/170 249/372/170 211/331/171 
f 154/237/172 250/373/173 251/374/172 155/238/172 
f 155/238/172 251/374/172 156/240/172 
f 211/331/171 249/372/171 252/375/171 75/88/174 
f 165/253/173 253/376/175 250/373/173 154/237/173 
f 75/88/174 252/375/174 76/89/174 
f 101/124/175 180/280/124 253/376/175 165/253/175 
f 77/90/51 76/89/51 254/377/51 104/130/176 
f 104/130/176 254/377/176 199/310/176 
f 82/96/177 81/95/54 255/378/177 179/279/177 
f 179/279/177 255/378/177 180/280/177 
f 200/311/132 199/310/132 256/379/132 144/224/178 
f 144/224/178 256/379/178 145/225/178 
f 80/94/122 163/249/122 81/95/122 
f 216/339/48 218/341/48 160/245/48 181/283/48 
f 160/245/48 182/284/48 181/283/48 
f 181/283/48 214/337/48 217/340/48 150/231/48 
f 217/340/48 219/342/48 150/231/48 
f 150/231/48 223/346/48 222/345/48 227/350/48 
f 222/345/48 225/348/48 227/350/48 
f 227/350/48 229/352/48 230/353/48 237/360/48 
f 230/353/48 152/234/48 237/360/48 
f 237/360/48 171/263/48 243/366/48 244/367/48 
f 243/366/48 242/365/48 244/367/48 
f 244/367/118 246/369/118 156/240/118 250/373/118 
f 156/240/48 251/374/48 250/373/48 
f 250/373/48 253/376/48 180/280/48 81/95/48 
f 180/280/48 255/378/48 81/95/48 
f 81/95/48 163/249/48 213/336/48 216/339/52 
f 213/336/48 212/335/48 216/339/48 
f 216/339/48 181/283/48 150/231/48 237/360/48 
f 150/231/48 227/350/48 237/360/48 
f 237/360/66 244/367/66 250/373/66 216/339/118 
f 250/373/48 81/95/48 216/339/48 
f 234/357/45 232/355/45 195/304/45 238/361/45 
f 195/304/45 240/363/45 238/361/45 
f 238/361/45 235/358/45 233/356/45 188/294/45 
f 233/356/45 231/354/45 188/294/45 
f 188/294/45 228/351/45 226/349/45 204/319/45 
f 226/349/45 224/347/45 204/319/45 
f 204/319/45 221/344/45 220/343/45 215/338/45 
f 220/343/45 184/288/45 215/338/45 
f 215/338/45 146/226/45 145/225/45 199/310/45 
f 145/225/45 256/379/45 199/310/45 
f 199/310/45 254/377/45 76/89/45 249/372/127 
f 76/89/45 252/375/45 249/372/45 
f 249/372/45 248/371/45 247/370/45 191/298/45 
f 247/370/45 245/368/45 191/298/45 
f 191/298/45 241/364/45 239/362/45 234/357/50 
f 239/362/63 236/359/63 234/357/63 
f 234/357/45 238/361/45 188/294/45 215/338/45 
f 188/294/45 204/319/45 215/338/45 
f 215/338/45 199/310/45 249/372/45 234/357/127 
f 249/372/50 191/298/50 234/357/50 
# 228 polygons - 52 triangles

